<?xml version="1.0" standalone="no"?><!-- Generator: Gravit.io --><svg xmlns="http://www.w3.org/2000/svg" xmlns:xlink="http://www.w3.org/1999/xlink" style="isolation:isolate" viewBox="0 0 56 44" width="56" height="44"><defs><clipPath id="_clipPath_PpaH2vlRIfkHYomvIP05loM5qkdanoO9"><rect width="56" height="44"/></clipPath></defs><g clip-path="url(#_clipPath_PpaH2vlRIfkHYomvIP05loM5qkdanoO9)"><g id="Interface_Layout"><g id="row_1"><g id="interface_-_arrow_right"><path d=" M 56 22 L 56 22 C 56.013 21.469 55.807 20.955 55.43 20.58 C 55.285 20.443 55.119 20.328 54.94 20.24 L 33.33 0.57 C 32.539 0.069 31.507 0.183 30.845 0.845 C 30.183 1.507 30.069 2.539 30.57 3.33 L 48.9 20 L 2 20 C 0.895 20 0 20.895 0 22 C 0 23.105 0.895 24 2 24 L 48.9 24 L 30.57 40.67 C 30.069 41.461 30.183 42.493 30.845 43.155 C 31.507 43.817 32.539 43.931 33.33 43.43 L 54.94 23.77 C 55.121 23.685 55.287 23.57 55.43 23.43 C 55.81 23.053 56.017 22.535 56 22 Z " fill-rule="evenodd" fill="rgb(255,255,255)"/></g></g></g></g></svg>