<?xml version="1.0" encoding="utf-8"?>
<!-- Generator: Adobe Illustrator 22.0.1, SVG Export Plug-In . SVG Version: 6.00 Build 0)  -->
<svg version="1.1" id="Vrstva_1" xmlns="http://www.w3.org/2000/svg" xmlns:xlink="http://www.w3.org/1999/xlink" x="0px" y="0px"
	 viewBox="0 0 841.9 595.3" style="enable-background:new 0 0 841.9 595.3;" xml:space="preserve">
<style type="text/css">
	.st0{fill:#392757;}
	.st1{fill:#FFFFFF;}
</style>
<g>
	<path class="st0" d="M722.9,542.9H119L58.5,52.4l221.8,152.7L420.9,66.4l140.7,138.7L783.4,52.4L722.9,542.9z M155.4,501.8h531.1
		l44.9-363.7L557,258.2l-136-134.1l-136,134.1L110.5,138.1L155.4,501.8z"/>
	
		<rect x="473.1" y="120.8" transform="matrix(0.5672 -0.8236 0.8236 0.5672 -96.8378 569.7421)" class="st0" width="41.1" height="512.5"/>
	
		<rect x="92" y="356.4" transform="matrix(0.8236 -0.5671 0.5671 0.8236 -152.3849 263.9816)" class="st0" width="512.5" height="41.1"/>
	<rect x="400.4" y="95.3" class="st0" width="41.1" height="427.1"/>
</g>
<g>
	<g>
		<path class="st1" d="M61.3,182.3v48.4H137v26.8H61.3v72.9H27V154.5h119.9v27.7H61.3z"/>
		<path class="st1" d="M224.5,330.7c-3.3,1.2-8,1.4-10.1,1.4c-24,0-36.2-15.8-36.2-47V143.5h32.5v140.9c0,14.1,4,21.2,18.3,21.2
			L224.5,330.7z"/>
		<path class="st1" d="M381.6,269.5c0,39-26.1,62.3-63.7,62.3s-63.7-23.3-63.7-62.3c0-40,26.1-62.6,63.7-62.6
			S381.6,229.5,381.6,269.5z M286.6,269.5c0,22.6,12.9,36.5,31.3,36.5c18.6,0,31.3-13.9,31.3-36.5s-12.7-36.7-31.3-36.7
			C299.5,232.8,286.6,246.9,286.6,269.5z"/>
		<path class="st1" d="M559.6,207l35.3,1.4l-47,122.1h-24.7L497,262.2h-0.9l-28,68.2h-23l-46.8-122.1l35.3-1.4l25.2,79.3h0.9
			l29.2-77.8h15.3l29.4,77.8h0.9L559.6,207z"/>
		<path class="st1" d="M664.2,330.7c-3.3,1.2-8,1.4-10.1,1.4c-24,0-36.2-15.8-36.2-47V143.5h32.5v140.9c0,14.1,4,21.2,18.3,21.2
			L664.2,330.7z"/>
		<path class="st1" d="M732.6,322.4l-49.9-114.1L718,207l30.3,80.4h0.9l30.6-80.4l35,1.4l-75.7,172.4l-31.7-1.4L732.6,322.4z"/>
	</g>
	<g>
		<path class="st1" d="M240,399.7c6.7,0,12.1,2,17.4,5.1l-1.7,2.8c-4.9-2.9-9.7-4.7-15.8-4.7c-13.4,0-20.4,10.2-20.4,22.8
			s6.9,22.8,20.4,22.8c6.1,0,10.9-1.8,15.8-4.7l1.7,2.8c-5.4,3.2-10.7,5.1-17.4,5.1c-15.6,0-23.7-11.7-23.7-26.1
			C216.3,411.3,224.3,399.7,240,399.7z"/>
		<path class="st1" d="M280.4,400.1H300c8.7,0,15.9,5.4,15.9,15.2c0,7.5-5.8,12.5-12.9,14.3l16.3,21.8l-3.8,0.4L299.4,430h-15.6
			v21.4h-3.3V400.1z M300.2,427c7.3,0,12.5-6.4,12.5-11.7c0-7.9-5.6-11.9-12.6-11.9h-16.3V427H300.2z"/>
		<path class="st1" d="M340.5,400.1h32.6v3.3h-29.3v19.9h26.4v3h-26.4v21.8h29.3v3.3h-32.6V400.1z"/>
		<path class="st1" d="M413.7,400.1h0.7l22.4,51.3l-3.4,0.4l-5.8-13.3h-27.2l-5.7,13.3l-3.4-0.4L413.7,400.1z M426.3,435.5
			l-12.1-28.1h-0.3l-12.1,28.1H426.3z"/>
		<path class="st1" d="M464.8,403.4H446v-3.3h40.8v3.3h-18.7v48h-3.3V403.4z"/>
		<path class="st1" d="M507.8,400.1h3.3v51.3h-3.3V400.1z"/>
		<path class="st1" d="M531,400.1l3.3-0.4l17.6,43.6h0.3l17.4-43.6l3.5,0.4l-20.8,51.3h-0.4L531,400.1z"/>
		<path class="st1" d="M593,400.1h32.6v3.3h-29.3v19.9h26.4v3h-26.4v21.8h29.3v3.3H593V400.1z"/>
	</g>
</g>
</svg>
