<?xml version="1.0" encoding="utf-8"?>
<!-- Generator: Adobe Illustrator 22.0.1, SVG Export Plug-In . SVG Version: 6.00 Build 0)  -->
<svg version="1.1" id="Vrstva_1" xmlns="http://www.w3.org/2000/svg" xmlns:xlink="http://www.w3.org/1999/xlink" x="0px" y="0px"
	 viewBox="0 0 127 35" style="enable-background:new 0 0 127 35;" xml:space="preserve">
<style type="text/css">
	.st0{clip-path:url(#SVGID_2_);}
	.st1{clip-path:url(#SVGID_4_);}
	.st2{fill:#FFFFFF;}
</style>
<g>
	<defs>
		<rect id="SVGID_1_" y="-46" width="128" height="128"/>
	</defs>
	<clipPath id="SVGID_2_">
		<use xlink:href="#SVGID_1_"  style="overflow:visible;"/>
	</clipPath>
	<g class="st0">
		<defs>
			<rect id="SVGID_3_" y="-46" width="128" height="128"/>
		</defs>
		<clipPath id="SVGID_4_">
			<use xlink:href="#SVGID_3_"  style="overflow:visible;"/>
		</clipPath>
		<g class="st1">
			<g id="Group">
				<g id="flowly_logo_onecolor">
					<g id="Vrstva_2-2">
						<path class="st2" d="M27.7,20.9H4L1.6,1.7l8.7,6l5.5-5.4l5.5,5.4l8.7-6L27.7,20.9L27.7,20.9z M5.4,19.3h20.8L28,5l-6.8,4.7
							l-5.3-5.3l-5.3,5.3L3.7,5L5.4,19.3L5.4,19.3z"/>
						
							<rect x="17.9" y="4.4" transform="matrix(0.5669 -0.8238 0.8238 0.5669 -3.7608 21.683)" class="st2" width="1.6" height="20.1"/>
						
							<rect x="3" y="13.7" transform="matrix(0.8238 -0.5669 0.5669 0.8238 -5.9028 9.9225)" class="st2" width="20.1" height="1.6"/>
						<rect x="15" y="3.4" class="st2" width="1.6" height="16.8"/>
						<path class="st2" d="M42.7,4.8v5.3H51v2.9h-8.3v8h-3.8V1.8h13.2v3H42.7L42.7,4.8z"/>
						<path class="st2" d="M60.6,21.1c-0.4,0.1-0.7,0.2-1.1,0.2c-2.6,0-4-1.7-4-5.2V0.6h3.6V16c0,1.5,0.4,2.3,2,2.3L60.6,21.1
							L60.6,21.1z"/>
						<path class="st2" d="M77.8,14.4c0,4.3-2.9,6.8-7,6.8c-4.1,0-7-2.6-7-6.8c0-4.4,2.9-6.9,7-6.9C75,7.5,77.8,10,77.8,14.4z
							 M67.4,14.4c0,2.5,1.4,4,3.4,4c2,0,3.4-1.5,3.4-4c0-2.5-1.4-4-3.4-4C68.8,10.4,67.4,11.9,67.4,14.4z"/>
						<path class="st2" d="M97.4,7.6l3.9,0.2l-5.2,13.4h-2.7l-2.9-7.5h-0.1l-3.1,7.5h-2.5L79.7,7.7l3.9-0.2l2.8,8.7h0.1l3.2-8.5h1.7
							l3.2,8.5h0.1L97.4,7.6L97.4,7.6z"/>
						<path class="st2" d="M108.8,21.1c-0.4,0.1-0.7,0.2-1.1,0.2c-2.6,0-4-1.7-4-5.2V0.6h3.6V16c0,1.5,0.4,2.3,2,2.3L108.8,21.1
							L108.8,21.1z"/>
						<path class="st2" d="M116.3,20.2l-5.5-12.5l3.9-0.2l3.3,8.8h0.1l3.3-8.8l3.8,0.2l-8.3,18.9l-3.5-0.2L116.3,20.2L116.3,20.2z"
							/>
						<path class="st2" d="M61.4,28.7c0.7,0,1.3,0.2,1.9,0.6l-0.2,0.3c-0.5-0.3-1.1-0.5-1.7-0.5c-1.5,0-2.2,1.1-2.2,2.5
							c0,1.4,0.8,2.5,2.2,2.5c0.6,0,1.2-0.2,1.7-0.5l0.2,0.3c-0.6,0.4-1.2,0.5-1.9,0.5c-1.7,0-2.6-1.3-2.6-2.9
							C58.9,29.9,59.7,28.7,61.4,28.7z"/>
						<path class="st2" d="M65.9,28.7H68c0.5,0,0.9,0.1,1.3,0.4c0.3,0.3,0.5,0.8,0.5,1.2c0,0.8-0.6,1.4-1.4,1.6l1.8,2.4l-0.4,0
							L68,32h-1.7v2.3h-0.4L65.9,28.7L65.9,28.7z M68,31.7c0.7,0,1.3-0.6,1.4-1.3c0-0.4-0.1-0.7-0.4-1c-0.3-0.3-0.6-0.4-1-0.3h-1.8
							v2.6H68L68,31.7z"/>
						<path class="st2" d="M72.5,28.7h3.6v0.4h-3.2v2.2h2.9v0.3h-2.9V34h3.2v0.4h-3.6V28.7L72.5,28.7z"/>
						<path class="st2" d="M80.5,28.7L80.5,28.7l2.5,5.6l-0.4,0L82,33h-3l-0.6,1.5l-0.4,0L80.5,28.7L80.5,28.7z M81.9,32.6l-1.3-3.1
							h0l-1.3,3.1H81.9L81.9,32.6z"/>
						<path class="st2" d="M86.1,29.1h-2.1v-0.4h4.5v0.4h-2.1v5.3h-0.4V29.1L86.1,29.1z"/>
						<path class="st2" d="M90.8,28.7h0.4v5.6h-0.4V28.7L90.8,28.7z"/>
						<path class="st2" d="M93.4,28.7l0.4,0l1.9,4.8h0l1.9-4.8l0.4,0l-2.3,5.6h0L93.4,28.7L93.4,28.7z"/>
						<path class="st2" d="M100.2,28.7h3.6v0.4h-3.2v2.2h2.9v0.3h-2.9V34h3.2v0.4h-3.6L100.2,28.7L100.2,28.7z"/>
						<path class="st2" d="M27.7,20.9H4L1.6,1.7l8.7,6l5.5-5.4l5.5,5.4l8.7-6L27.7,20.9L27.7,20.9z M5.4,19.3h20.8L28,5l-6.8,4.7
							l-5.3-5.3l-5.3,5.3L3.7,5L5.4,19.3L5.4,19.3z"/>
						
							<rect x="17.9" y="4.4" transform="matrix(0.5669 -0.8238 0.8238 0.5669 -3.7608 21.683)" class="st2" width="1.6" height="20.1"/>
						
							<rect x="3" y="13.7" transform="matrix(0.8238 -0.5669 0.5669 0.8238 -5.9028 9.9225)" class="st2" width="20.1" height="1.6"/>
						<rect x="15" y="3.4" class="st2" width="1.6" height="16.8"/>
						<path class="st2" d="M42.7,4.8v5.3H51v2.9h-8.3v8h-3.8V1.8h13.2v3H42.7L42.7,4.8z"/>
						<path class="st2" d="M60.6,21.1c-0.4,0.1-0.7,0.2-1.1,0.2c-2.6,0-4-1.7-4-5.2V0.6h3.6V16c0,1.5,0.4,2.3,2,2.3L60.6,21.1
							L60.6,21.1z"/>
						<path class="st2" d="M77.8,14.4c0,4.3-2.9,6.8-7,6.8c-4.1,0-7-2.6-7-6.8c0-4.4,2.9-6.9,7-6.9C75,7.5,77.8,10,77.8,14.4z
							 M67.4,14.4c0,2.5,1.4,4,3.4,4c2,0,3.4-1.5,3.4-4c0-2.5-1.4-4-3.4-4C68.8,10.4,67.4,11.9,67.4,14.4z"/>
						<path class="st2" d="M97.4,7.6l3.9,0.2l-5.2,13.4h-2.7l-2.9-7.5h-0.1l-3.1,7.5h-2.5L79.7,7.7l3.9-0.2l2.8,8.7h0.1l3.2-8.5h1.7
							l3.2,8.5h0.1L97.4,7.6z"/>
						<path class="st2" d="M108.8,21.1c-0.4,0.1-0.7,0.2-1.1,0.2c-2.6,0-4-1.7-4-5.2V0.6h3.6V16c0,1.5,0.4,2.3,2,2.3L108.8,21.1
							L108.8,21.1z"/>
						<path class="st2" d="M116.3,20.2l-5.5-12.5l3.9-0.2l3.3,8.8h0.1l3.3-8.8l3.8,0.2l-8.3,18.9l-3.5-0.2L116.3,20.2L116.3,20.2z"
							/>
						<path class="st2" d="M61.4,28.7c0.7,0,1.3,0.2,1.9,0.6l-0.2,0.3c-0.5-0.3-1.1-0.5-1.7-0.5c-1.5,0-2.2,1.1-2.2,2.5
							c0,1.4,0.8,2.5,2.2,2.5c0.6,0,1.2-0.2,1.7-0.5l0.2,0.3c-0.6,0.4-1.2,0.5-1.9,0.5c-1.7,0-2.6-1.3-2.6-2.9
							C58.9,29.9,59.7,28.7,61.4,28.7z"/>
						<path class="st2" d="M65.9,28.7H68c0.5,0,0.9,0.1,1.3,0.4c0.3,0.3,0.5,0.8,0.5,1.2c0,0.8-0.6,1.4-1.4,1.6l1.8,2.4l-0.4,0
							L68,32h-1.7v2.3h-0.4L65.9,28.7L65.9,28.7z M68,31.7c0.7,0,1.3-0.6,1.4-1.3c0-0.4-0.1-0.7-0.4-1c-0.3-0.3-0.6-0.4-1-0.3h-1.8
							v2.6H68L68,31.7z"/>
						<path class="st2" d="M72.5,28.7h3.6v0.4h-3.2v2.2h2.9v0.3h-2.9V34h3.2v0.4h-3.6V28.7L72.5,28.7z"/>
						<path class="st2" d="M80.5,28.7L80.5,28.7l2.5,5.6l-0.4,0L82,33h-3l-0.6,1.5l-0.4,0L80.5,28.7L80.5,28.7z M81.9,32.6l-1.3-3.1
							h0l-1.3,3.1H81.9L81.9,32.6z"/>
						<path class="st2" d="M86.1,29.1h-2.1v-0.4h4.5v0.4h-2.1v5.3h-0.4V29.1L86.1,29.1z"/>
						<path class="st2" d="M90.8,28.7h0.4v5.6h-0.4V28.7L90.8,28.7z"/>
						<path class="st2" d="M93.4,28.7l0.4,0l1.9,4.8h0l1.9-4.8l0.4,0l-2.3,5.6h0L93.4,28.7L93.4,28.7z"/>
						<path class="st2" d="M100.2,28.7h3.6v0.4h-3.2v2.2h2.9v0.3h-2.9V34h3.2v0.4h-3.6L100.2,28.7L100.2,28.7z"/>
					</g>
				</g>
			</g>
		</g>
	</g>
</g>
</svg>
