<svg xmlns="http://www.w3.org/2000/svg" viewBox="0 0 3439.18 2064.5"><defs><style>.cls-1,.cls-5,.cls-6,.cls-7{fill:none;stroke-miterlimit:10;}.cls-1{stroke:#fff;opacity:0.2;}.cls-2{fill:#371d57;}.cls-3{fill:#ff2ea5;}.cls-4{fill:#fff;}.cls-5,.cls-6,.cls-7{stroke:#ff2ea5;stroke-width:3px;}.cls-6{stroke-dasharray:11.9 11.9;}.cls-7{stroke-dasharray:12 12;}</style></defs><title>map</title><g id="Vrstva_2" data-name="Vrstva 2"><g id="Layer_1" data-name="Layer 1"><polygon class="cls-1" points="1162.68 130 1164.68 130 1171.86 133.04 1191.53 146.79 1207.92 151.21 1212.46 149.14 1225.93 147.08 1230.91 147.51 1244.16 139.72 1247.65 134 1251.67 145.5 1270.12 161.9 1273.07 162.48 1287.84 172.81 1294.68 187.83 1291.06 211.14 1286.39 219.97 1282.86 232.61 1292.11 235.25 1310.89 228.47 1321.58 227.29 1323.09 242.27 1312.22 278.37 1319.4 288.26 1350.11 304.18 1386.63 315.25 1397.84 314.5 1407.67 298.5 1412.78 278.7 1447.3 272.65 1499.1 276.33 1500.51 270.87 1499.35 241.01 1502.19 229.63 1508.51 222.5 1508.17 197.5 1492.04 179.06 1488.85 169.23 1507.67 160.33 1511.08 149.71 1537.55 161.21 1560.39 178.79 1567.9 177.68 1572.67 163.72 1575.9 158.78 1587.19 161.76 1594.29 182.17 1615.59 183.06 1633.42 188.68 1642.85 209.36 1640.33 215.81 1638.28 251.52 1645.97 271.02 1664.09 290.25 1668.53 292.54 1681.23 306.11 1683.87 324.73 1682.67 336.63 1693.81 345.78 1702.66 333.22 1709.16 327.43 1736.7 328.26 1820.46 357.84 1839.85 372.3 1841.65 374.69 1855.77 379.27 1883.84 372.17 1904.26 372.54 1932.63 425.45 1958.99 422.98 1973.91 417.3 1988.51 416.83 1995.13 424.57 2005.75 448.21 2006.16 466.79 2000.29 481.6 2022.34 478.67 2031.1 468.77 2052.02 448 2065.74 449.45 2081.05 455.55 2093.45 463.87 2106.86 461.37 2118.53 438.39 2125.7 437.05 2145.64 438.06 2165.95 444.3 2181.98 456.95 2211.61 488.07 2222.36 511.22 2209 517.09 2205.68 547.74 2192.33 562.41 2178.23 567.69 2169.56 565.4 2156.22 567.48 2146.44 581.73 2120.66 598.77 2119.73 600.25 2120.75 609.32 2112.35 608.19 2113.04 633.44 2128.47 636.92 2134.06 653.79 2145.24 666.2 2183.76 661.87 2187.97 680.84 2193.67 698.5 2204.19 705.6 2215.42 709.76 2236.69 726.96 2281.26 795.11 2295.84 841.52 2316.34 865.67 2339.68 878.19 2345.43 879.23 2361.89 877.8 2378.71 857.02 2391.67 846.17 2407.59 818.44 2434.39 804.32 2439.38 804.43 2454.51 802.83 2460.54 793.46 2464.62 787.78 2480.36 782.7 2490.29 783.26 2491.84 770.98 2505.6 776.38 2509.29 782.32 2516.28 785.85 2521.17 777.5 2513.44 761.51 2512.17 735.33 2499.43 721.65 2489.82 714.66 2476.73 702.1 2467.01 663.17 2449.85 640.12 2445.52 620.47 2451.25 616.76 2468.22 613.85 2486.44 623.93 2548.97 638.64 2564.68 646.98 2570.02 651.5 2588.45 656.25 2598.21 654.22 2605.56 656.09 2606.42 660.98 2614.17 684.67 2628.93 695.33 2681.46 707.08 2673.75 712.03 2680.7 722.3 2680.82 738.31 2691.09 752.86 2697.52 739.56 2709.49 740.46 2721.32 754.31 2723.51 760.92 2732.6 762.92 2739.79 754.66 2760.43 743.57 2776.26 743.12 2818.34 751 2832.67 746.17 2838.84 740.83 2854.51 719.67 2858.26 706.01 2871.01 711.46 2882.56 728 2875.27 747.5 2878.91 766.98 2886.36 779.86 2886.7 784.67 2879.13 798.41 2855.76 813.68 2826.32 821.75 2815.33 821.94 2807.55 839.07 2828.82 865.58 2844.89 869.47 2862.09 869.96 2881.06 878.65 2877.4 883 2877.76 893.88 2879.84 896.03 2889.41 912.11 2892.61 921.57 2905.76 942.46 2936.67 972 2953.67 975.5 2973.01 970 2988.72 955.84 3016.51 953.17 3033.51 947.33 3033.07 939.54 3030.16 932.69 3018.89 931.71 3017.4 914.42 3040.63 923.34 3060.73 937.29 3058.33 951.1 3071.09 960.51 3083.81 963.03 3133.52 988.17 3145.25 998.94 3146.59 1003.75 3157.47 1019.84 3170.01 1019.92 3183.55 1007.14 3215.18 1010.31 3252.12 1030.12 3271.95 1029.56 3286.49 1020.23 3296.71 1031.85 3303.96 1060.38 3316.26 1069.11 3302.52 1085.32 3304.56 1107.59 3328.71 1172.87 3344.04 1186.02 3350.03 1186.4 3368.99 1195.95 3376.06 1204.37 3393.92 1208.22 3405.13 1204.65 3417.67 1210.67 3420.67 1244.83 3435.3 1290.95 3438.68 1320 3435.46 1332.74 3419.68 1333.55 3401.81 1341.19 3393.03 1349.34 3375.2 1356.02 3367.35 1354.88 3345.25 1345.84 3308.39 1349.78 3303.47 1348.95 3291.67 1350.33 3284.68 1363.22 3283.47 1374.15 3272.89 1388.87 3250.55 1408.14 3244.28 1415.92 3227.62 1429.29 3213.2 1428.61 3212.12 1463.02 3174.37 1490.06 3123.19 1509.94 3106.34 1521.17 3088.34 1546.17 3071.64 1597.63 3070.24 1652.46 3065.3 1675.66 3046.96 1699.08 3025.95 1711.31 3011.46 1710.77 2987.69 1711.64 2972.33 1723.38 2958.92 1772.21 2949.77 1784.93 2936.84 1786.62 2927.84 1784.67 2916.51 1786.67 2908.34 1793.33 2894.45 1816.34 2874.45 1833.36 2796.43 1864.07 2771.26 1866.41 2761.96 1861.36 2751.73 1850.42 2737.28 1847.14 2703.84 1863.2 2648.17 1834.33 2623.21 1828.34 2595.62 1835.66 2577.72 1848.43 2555.78 1885.15 2549.03 1891.1 2526.68 1924.8 2508.45 1979.14 2498.27 2003.03 2489.07 2018.76 2488 2026.66 2476.32 2013.96 2468.84 1997.09 2464.2 1962.44 2461.12 1954.16 2451.66 1941.24 2439.02 1941.63 2423.91 1946.81 2406.53 1945.18 2394.67 1937.81 2367.6 1930.01 2355.65 1929.82 2342.32 1919.47 2337.01 1895.17 2320.43 1891.17 2277.38 1876.26 2245.46 1877.57 2234.41 1880.9 2209.76 1920.61 2190.83 1933.45 2182.5 1927.78 2172.52 1929.63 2102.01 1919 2055.56 1922.05 1977.35 1874.11 1975.06 1862.83 1966.8 1863.51 1964.51 1853.17 1950.22 1853.17 1951.38 1847.75 1932.67 1840.57 1924.94 1834.02 1923.95 1829.12 1917.66 1823.78 1894.61 1828.26 1886.7 1832.53 1860.59 1836.35 1812.67 1811.5 1772.24 1795.57 1758.35 1783.46 1740.01 1768.83 1697.01 1751.72 1671.2 1745.2 1657.2 1745.19 1643.81 1736.83 1640.4 1745.78 1635.63 1756.87 1623.53 1764.79 1592.62 1772.9 1579.88 1772.45 1584.34 1761.17 1582.17 1742.33 1576.1 1731.51 1516.24 1720.84 1497.57 1721.03 1490.64 1760.75 1491.95 1814.56 1478.95 1868.87 1479.14 1884.47 1483.35 1894.97 1477.86 1907.33 1460.8 1905.73 1421.67 1894.66 1406.91 1897.91 1396.94 1930.47 1390.7 1941.32 1373.46 1956.51 1358.57 1986.91 1355.84 2034.74 1345.28 2048.6 1342.43 2049.23 1332.26 2042.75 1323.78 2030.24 1309.18 2030.26 1307.98 2022.92 1298.18 2016.55 1282.51 2023.03 1269.88 2024.23 1243.07 2007.68 1235.08 1999.47 1226.17 2008.61 1218.61 2028.17 1205.35 2042.44 1168.68 2064 1160.68 2064 1123.83 2049.36 1048.88 2038.62 1028.89 2031.51 1012.91 2017.93 1006.69 2001.09 1012.14 1993.36 1019.85 1985.84 1016.72 1980.16 999.34 1955 981.98 1944.71 931 1910.67 910.84 1905.62 896.5 1889.63 869.55 1833.88 856.36 1823.22 837.01 1818.65 813.26 1791.76 807.2 1768.71 764 1748.5 756.34 1751.5 745.3 1772.99 740.37 1771.18 703.96 1743.53 696.32 1722.7 698.5 1710 691.34 1695.83 671.81 1676.7 653 1652.33 638.84 1646.33 613.69 1645.77 603.22 1643.02 594.61 1636.79 580.84 1610.67 532.76 1544.79 518.7 1531.42 500.02 1499.93 494.34 1494.33 472.84 1473.5 448.74 1468.23 442.99 1469.24 440.87 1471.01 440.87 1480.22 430.64 1481.22 404.94 1477.49 393.5 1473.01 383.84 1460.33 371 1430.5 359.67 1417.17 343.09 1410.54 331.47 1402.47 323.82 1393.09 316.85 1373.82 314.97 1338.91 310.2 1333.56 290.99 1319.97 277.24 1278.79 263.71 1260 256.17 1255.17 251.47 1249.31 253.18 1242.17 249.24 1237.49 255.34 1229.67 250.5 1212 227.68 1200.3 211.16 1187.51 193.37 1159.19 202.17 1139.41 221.17 1132.5 228 1124.67 230.23 1087.49 231.8 1085.23 242.67 1087.5 249.21 1070.37 259.84 1054.33 265.5 1026.17 254.19 1019.79 232.25 1006.82 236.5 986.17 236.84 975.33 221.73 967.7 209.49 966.44 202.5 959.67 125.32 917.69 123.84 899.33 116.8 889.94 97.83 874.83 89.82 853.91 95.34 824.5 89.84 808.83 76 791.33 60.06 780.73 52.35 776.12 40.9 761.95 50.97 749.65 56.67 746.17 57.51 727 46.68 714.55 40 705.23 72.37 707.54 83.48 713.21 87.59 724.69 87.79 732.68 100.19 747.62 117.06 748.83 121.26 760.24 116 765.76 122.74 773.29 143.36 823.2 158.5 817.91 157.16 813.1 156.27 788.84 164.94 767.37 177.7 741.7 188.62 728.92 193.38 720.14 217.75 695.01 236.32 683.89 236.9 679.14 245.61 660.03 251.66 654.8 282.45 642.2 326.18 641.6 339.92 644.12 356.23 637.45 366.32 622.56 388.63 611.71 417.56 609.04 449.93 628.87 475.16 636.27 478.35 635.87 501.5 614.17 504.5 600.33 505.52 572.15 519.94 564.16 533.67 568.5 556.05 561.03 585 562.5 595.34 552.5 618.66 494.65 631.11 497.61 643.24 504.51 653.83 499.3 656.11 492.99 671.47 472.05 686.96 458.91 696.13 465.91 702.79 477.04 717.67 486.67 728.53 480.74 745.27 463.71 749.29 449.12 749.34 447.16 765.34 431.83 767.34 421.17 760.27 409.07 794.91 393.57 854 392 878.57 383.3 897.2 382.69 904.13 383.71 925.12 379.18 935.72 373.81 943.57 360.36 943.59 345.55 955.2 337.47 971.58 330.39 975.17 325.58 989.65 317.98 1005.53 319.14 1026.87 316.2 1093.09 285.76 1107.4 273.76 1113.11 265.57 1120.38 258.99 1141.8 255.09 1161.67 256.58 1180.84 257.67 1193.67 245.83 1197.34 226 1154.22 203.54 1152.45 191.71 1155.91 186.92 1125.22 177.12 1133.3 155.31 1144.77 137.07 1155.31 132.03 1162.68 130 1162.68 130"/><polygon class="cls-2" points="1122.68 0 1124.68 0 1131.86 3.04 1151.53 16.79 1167.92 21.21 1172.46 19.14 1185.93 17.08 1190.91 17.51 1204.16 9.72 1207.65 4 1211.67 15.5 1230.12 31.9 1233.07 32.48 1247.84 42.81 1254.68 57.83 1251.06 81.14 1246.39 89.97 1242.86 102.61 1252.11 105.25 1270.89 98.47 1281.58 97.29 1283.09 112.27 1272.22 148.37 1279.4 158.26 1310.11 174.18 1346.63 185.25 1357.84 184.5 1367.67 168.5 1372.78 148.71 1407.3 142.65 1459.1 146.33 1460.51 140.87 1459.35 111.01 1462.19 99.63 1468.51 92.5 1468.17 67.5 1452.04 49.05 1448.85 39.23 1467.67 30.33 1471.08 19.7 1497.55 31.21 1520.39 48.8 1527.9 47.68 1532.67 33.72 1535.9 28.79 1547.19 31.76 1554.29 52.17 1575.59 53.06 1593.42 58.68 1602.85 79.36 1600.33 85.81 1598.28 121.52 1605.97 141.02 1624.09 160.25 1628.53 162.53 1641.23 176.11 1643.87 194.73 1642.67 206.63 1653.81 215.78 1662.66 203.22 1669.16 197.43 1696.7 198.26 1780.46 227.84 1799.85 242.3 1801.65 244.69 1815.77 249.27 1843.84 242.17 1864.26 242.54 1892.63 295.45 1918.99 292.98 1933.91 287.3 1948.51 286.83 1955.13 294.57 1965.75 318.21 1966.16 336.79 1960.29 351.6 1982.34 348.67 1991.1 338.77 2012.02 318 2025.73 319.45 2041.05 325.55 2053.45 333.87 2066.86 331.37 2078.53 308.39 2085.7 307.05 2105.64 308.06 2125.95 314.3 2141.98 326.95 2171.61 358.07 2182.36 381.22 2169 387.09 2165.68 417.74 2152.33 432.41 2138.23 437.69 2129.56 435.4 2116.22 437.48 2106.44 451.73 2080.66 468.77 2079.73 470.25 2080.75 479.32 2072.35 478.19 2073.04 503.44 2088.47 506.92 2094.06 523.79 2105.24 536.2 2143.76 531.87 2147.97 550.84 2153.67 568.5 2164.19 575.6 2175.42 579.76 2196.69 596.96 2241.26 665.11 2255.84 711.52 2276.34 735.67 2299.68 748.19 2305.43 749.23 2321.89 747.8 2338.71 727.02 2351.67 716.17 2367.59 688.44 2394.39 674.32 2399.38 674.43 2414.51 672.83 2420.54 663.46 2424.62 657.78 2440.36 652.7 2450.29 653.26 2451.84 640.98 2465.6 646.38 2469.29 652.32 2476.28 655.85 2481.17 647.5 2473.44 631.51 2472.17 605.33 2459.43 591.65 2449.82 584.66 2436.73 572.1 2427.01 533.17 2409.85 510.12 2405.52 490.47 2411.25 486.76 2428.22 483.85 2446.44 493.93 2508.97 508.64 2524.68 516.98 2530.02 521.5 2548.45 526.25 2558.21 524.22 2565.56 526.09 2566.42 530.98 2574.17 554.67 2588.93 565.33 2641.46 577.08 2633.75 582.03 2640.7 592.3 2640.82 608.31 2651.09 622.86 2657.52 609.56 2669.49 610.46 2681.32 624.31 2683.51 630.92 2692.6 632.92 2699.79 624.66 2720.43 613.57 2736.26 613.12 2778.34 621 2792.67 616.17 2798.84 610.83 2814.51 589.67 2818.26 576.01 2831.01 581.46 2842.56 598 2835.27 617.5 2838.91 636.98 2846.36 649.86 2846.7 654.67 2839.13 668.41 2815.76 683.68 2786.32 691.75 2775.33 691.94 2767.55 709.07 2788.82 735.58 2804.89 739.47 2822.09 739.96 2841.06 748.65 2837.4 753 2837.76 763.88 2839.84 766.03 2849.41 782.11 2852.61 791.57 2865.76 812.46 2896.67 842 2913.67 845.5 2933.01 840 2948.72 825.84 2976.51 823.17 2993.51 817.33 2993.07 809.54 2990.16 802.69 2978.89 801.71 2977.4 784.42 3000.63 793.34 3020.73 807.29 3018.33 821.1 3031.09 830.51 3043.81 833.03 3093.52 858.17 3105.25 868.94 3106.59 873.75 3117.47 889.84 3130.01 889.92 3143.55 877.14 3175.18 880.31 3212.12 900.12 3231.95 899.56 3246.49 890.23 3256.71 901.85 3263.96 930.38 3276.26 939.11 3262.52 955.32 3264.56 977.59 3288.71 1042.87 3304.04 1056.02 3310.03 1056.4 3328.99 1065.95 3336.06 1074.37 3353.92 1078.22 3365.13 1074.65 3377.67 1080.67 3380.67 1114.83 3395.3 1160.95 3398.68 1190 3395.46 1202.74 3379.68 1203.55 3361.81 1211.19 3353.03 1219.34 3335.2 1226.02 3327.35 1224.88 3305.25 1215.84 3268.39 1219.78 3263.47 1218.95 3251.67 1220.33 3244.68 1233.22 3243.47 1244.15 3232.89 1258.87 3210.55 1278.14 3204.28 1285.92 3187.62 1299.29 3173.2 1298.61 3172.12 1333.02 3134.37 1360.06 3083.19 1379.94 3066.34 1391.17 3048.34 1416.17 3031.64 1467.63 3030.24 1522.46 3025.3 1545.66 3006.96 1569.08 2985.95 1581.31 2971.46 1580.77 2947.69 1581.64 2932.33 1593.38 2918.92 1642.21 2909.77 1654.93 2896.84 1656.62 2887.84 1654.67 2876.51 1656.67 2868.34 1663.33 2854.45 1686.34 2834.45 1703.36 2756.43 1734.07 2731.26 1736.41 2721.96 1731.36 2711.73 1720.42 2697.28 1717.14 2663.84 1733.2 2608.17 1704.33 2583.21 1698.34 2555.62 1705.66 2537.72 1718.43 2515.78 1755.15 2509.03 1761.1 2486.68 1794.8 2468.45 1849.14 2458.27 1873.03 2449.07 1888.76 2448 1896.66 2436.32 1883.96 2428.84 1867.09 2424.2 1832.44 2421.12 1824.16 2411.66 1811.24 2399.02 1811.63 2383.91 1816.81 2366.53 1815.18 2354.67 1807.81 2327.6 1800.01 2315.65 1799.82 2302.32 1789.47 2297.01 1765.17 2280.43 1761.17 2237.38 1746.26 2205.46 1747.57 2194.41 1750.9 2169.76 1790.61 2150.83 1803.45 2142.5 1797.78 2132.52 1799.63 2062.01 1789 2015.56 1792.05 1937.35 1744.11 1935.06 1732.83 1926.8 1733.51 1924.51 1723.17 1910.22 1723.17 1911.38 1717.75 1892.67 1710.57 1884.94 1704.02 1883.95 1699.12 1877.66 1693.78 1854.61 1698.26 1846.7 1702.53 1820.59 1706.35 1772.67 1681.5 1732.24 1665.57 1718.35 1653.46 1700.01 1638.83 1657.01 1621.72 1631.2 1615.2 1617.2 1615.19 1603.81 1606.83 1600.4 1615.78 1595.63 1626.87 1583.53 1634.79 1552.62 1642.9 1539.88 1642.45 1544.34 1631.17 1542.17 1612.33 1536.1 1601.51 1476.24 1590.84 1457.57 1591.03 1450.64 1630.75 1451.95 1684.56 1438.95 1738.87 1439.14 1754.47 1443.35 1764.97 1437.86 1777.33 1420.8 1775.73 1381.67 1764.66 1366.91 1767.91 1356.94 1800.47 1350.7 1811.32 1333.46 1826.51 1318.57 1856.91 1315.84 1904.74 1305.28 1918.6 1302.43 1919.23 1292.26 1912.75 1283.78 1900.24 1269.18 1900.26 1267.98 1892.92 1258.18 1886.55 1242.51 1893.03 1229.88 1894.23 1203.07 1877.68 1195.08 1869.47 1186.17 1878.61 1178.61 1898.17 1165.35 1912.44 1128.68 1934 1120.68 1934 1083.83 1919.36 1008.88 1908.62 988.89 1901.51 972.91 1887.93 966.69 1871.09 972.14 1863.36 979.85 1855.84 976.72 1850.16 959.34 1825 941.98 1814.71 891 1780.67 870.84 1775.62 856.5 1759.63 829.55 1703.88 816.36 1693.22 797.01 1688.65 773.26 1661.76 767.2 1638.71 724 1618.5 716.34 1621.5 705.3 1642.99 700.37 1641.18 663.96 1613.53 656.32 1592.7 658.5 1580 651.34 1565.83 631.81 1546.7 613 1522.33 598.84 1516.33 573.69 1515.77 563.22 1513.02 554.61 1506.79 540.84 1480.67 492.76 1414.79 478.7 1401.42 460.02 1369.93 454.34 1364.33 432.84 1343.5 408.74 1338.23 402.99 1339.24 400.87 1341.01 400.87 1350.22 390.64 1351.22 364.94 1347.49 353.5 1343.01 343.84 1330.33 331 1300.5 319.67 1287.17 303.09 1280.54 291.47 1272.47 283.82 1263.09 276.85 1243.82 274.97 1208.91 270.2 1203.56 250.99 1189.97 237.24 1148.79 223.71 1130 216.17 1125.17 211.47 1119.31 213.18 1112.17 209.24 1107.49 215.34 1099.67 210.5 1082 187.68 1070.3 171.16 1057.51 153.37 1029.19 162.17 1009.41 181.17 1002.5 188 994.67 190.23 957.49 191.8 955.23 202.67 957.5 209.21 940.37 219.84 924.33 225.5 896.17 214.19 889.79 192.25 876.82 196.5 856.17 196.84 845.33 181.73 837.7 169.49 836.44 162.5 829.67 85.32 787.69 83.84 769.33 76.8 759.94 57.83 744.83 49.82 723.91 55.34 694.5 49.84 678.83 36.01 661.33 20.06 650.73 12.35 646.12 0.9 631.95 10.97 619.65 16.67 616.17 17.5 597 6.68 584.55 0 575.23 32.37 577.54 43.48 583.21 47.59 594.69 47.79 602.68 60.2 617.62 77.06 618.83 81.26 630.24 76 635.76 82.74 643.29 103.36 693.2 118.5 687.91 117.17 683.1 116.27 658.84 124.94 637.37 137.7 611.7 148.62 598.92 153.38 590.14 177.75 565.01 196.32 553.89 196.9 549.14 205.61 530.03 211.66 524.8 242.45 512.2 286.18 511.6 299.92 514.12 316.23 507.45 326.32 492.56 348.63 481.71 377.56 479.04 409.93 498.87 435.16 506.27 438.35 505.87 461.5 484.17 464.5 470.33 465.52 442.15 479.94 434.16 493.67 438.5 516.05 431.03 545 432.5 555.34 422.5 578.66 364.65 591.11 367.61 603.24 374.51 613.83 369.3 616.11 362.99 631.47 342.05 646.96 328.91 656.13 335.91 662.79 347.04 677.67 356.67 688.53 350.74 705.27 333.71 709.29 319.12 709.34 317.16 725.34 301.83 727.34 291.17 720.27 279.07 754.91 263.57 814 262 838.57 253.3 857.2 252.69 864.13 253.71 885.12 249.18 895.72 243.81 903.57 230.36 903.59 215.55 915.2 207.47 931.58 200.39 935.17 195.58 949.65 187.98 965.53 189.15 986.87 186.2 1053.09 155.76 1067.4 143.76 1073.11 135.57 1080.38 128.99 1101.8 125.09 1121.67 126.58 1140.84 127.67 1153.67 115.83 1157.34 96 1114.22 73.54 1112.45 61.71 1115.91 56.92 1085.22 47.12 1093.3 25.3 1104.77 7.07 1115.31 2.04 1122.68 0 1122.68 0"/><circle class="cls-3" cx="1223.4" cy="1564.6" r="83.18"/><path class="cls-4" d="M1266.65,1599.73h-86.5l-8.67-70.26,31.77,21.87,20.15-19.87,20.15,19.87,31.77-21.87Zm-81.29-5.89h76.08l6.43-52.09-25,17.21-19.49-19.22L1203.91,1559l-25-17.21Z"/><rect class="cls-4" x="1230.87" y="1539.26" width="5.89" height="73.42" transform="translate(-763.94 1698.34) rotate(-55.45)"/><rect class="cls-4" x="1176.28" y="1573.02" width="73.42" height="5.89" transform="translate(-679.83 965.83) rotate(-34.55)"/><rect class="cls-4" x="1220.46" y="1535.61" width="5.89" height="61.18"/><path class="cls-5" d="M1201.46,1508.46s-.63-2-2-5.67"/><path class="cls-6" d="M1195.41,1491.62c-33.18-87.62-207.47-492.29-638.77-622.3"/><path class="cls-5" d="M550.92,867.62c-1.92-.57-3.84-1.12-5.76-1.68"/><path class="cls-3" d="M527.7,861.12c9.06-.75,20.69-3.09,28.54-6.82l-8.81,12.34,1.12,15.13C543.78,874.5,535.06,866.46,527.7,861.12Z"/><path class="cls-7" d="M1233.81,1508.46s589.35-169,1121.44,49.15"/><path class="cls-3" d="M2372,1564.6c-9.08-.34-20.91.6-29.15,3.37l10.22-11.21.69-15.15C2357.59,1549.4,2365.29,1558.42,2372,1564.6Z"/><path class="cls-7" d="M1213,1521s130.88-415.85,95.8-729.12"/><path class="cls-3" d="M1306.58,773.93c4.12,8.1,10.7,18,17.13,23.83l-14.77-3.49L1295.36,801C1300.28,793.88,1304.43,782.76,1306.58,773.93Z"/><path class="cls-7" d="M1233.81,1521S1621.27,1079.8,2237,1019.33"/><path class="cls-3" d="M2255,1017.67c-8.18,4-18.19,10.34-24.16,16.65l3.77-14.7-6.5-13.7C2235.22,1011,2246.26,1015.34,2255,1017.67Z"/><path class="cls-7" d="M1220.46,1508.46s73.6-78.47,174.61-286.22"/><path class="cls-3" d="M1402.93,1205.93c-.9,9-.69,20.91,1.57,29.3l-10.55-10.9-15.09-1.62C1386.87,1219.33,1396.36,1212.2,1402.93,1205.93Z"/></g></g></svg>