<svg xmlns="http://www.w3.org/2000/svg" viewBox="0 0 56 56"><defs><style>.cls-1{opacity:0.06;}.cls-2{fill:#fff;}.cls-3{fill:#e13a86;}</style></defs><title>design</title><g id="Vrstva_2" data-name="Vrstva 2"><g id="Vrstva_1-2" data-name="Vrstva 1"><g id="design"><g id="WEB_design" data-name="WEB design" class="cls-1"><path class="cls-2" d="M33.49,33.49,48.3,18.68h0L53,14h0l1-1a6.36,6.36,0,1,0-9-9L44,5l-5,5-3.65,3.65h0L9,40v0l-.05.05,0,0c-.07.16-5.22,13.64-5,13.9a.22.22,0,0,0,.16,0A8.39,8.39,0,0,0,6,53.57V55H3V4.41L23.08,24.5l.71-.71L2,2V56H56ZM17.72,47.85l-.44-1.74L46.21,17.19l1.08,1.08-.3.3ZM40.8,11.78,11.87,40.72l-1.74-.44L39.71,10.69Zm.71.71,4,4L17,45l-3-1-1-3ZM48,17.57,40.41,10,44,6.39,51.59,14ZM9.38,41.7l.21-.52,2.63.66.83,2.48.16.47.47.16,2.48.83.66,2.6c-1.93.79-3.91,1.58-5.72,2.28L7.33,46.88C8,45.24,8.66,43.46,9.38,41.7ZM26,41l5,5H21ZM45.71,4.69a5.27,5.27,0,0,1,7.58,0,5.27,5.27,0,0,1,0,7.58l-1,1L44.71,5.69ZM6.94,47.9l3.14,3.15c-2,.77-3.79,1.39-4.87,1.72C5.54,51.69,6.16,49.94,6.94,47.9ZM46,52v3H42V52H41v3H37V52H36v3H32V52H31v3H27V52H26v3H22V52H21v3H17V52H16v3H12V52H11v3H7V53.23C8.14,52.84,18,49,18,49l.2-.2h0L20,47H33.41L26.7,40.28l6.08-6.08L53.59,55H47V52Z"/><polygon class="cls-2" points="12 35.58 12 27 16.29 31.29 17 30.58 11 24.59 11 36.59 12 35.58"/></g><g id="WEB_design-2" data-name="WEB design"><path class="cls-3" d="M31.49,31.49,46.3,16.68h0L51,12h0l1-1a6.27,6.27,0,0,0,0-9,6.28,6.28,0,0,0-9,0L42,3,37,8l-3.65,3.65h0L7,38v0l0,.05,0,0c-.07.16-5.22,13.64-5,13.9a.22.22,0,0,0,.16,0A8.39,8.39,0,0,0,4,51.57V53H1V2.41L21.08,22.5l.71-.71L0,0V54H54ZM15.72,45.85l-.44-1.74L44.21,15.19l1.08,1.08-.3.3ZM38.8,9.78,9.87,38.72l-1.74-.44L37.71,8.69Zm.71.71,4,4L15,43l-3-1-1-3ZM46,15.57,38.41,8,42,4.39,49.59,12ZM7.38,39.7l.21-.52,2.63.66.83,2.48.16.47.47.16,2.48.83.66,2.6c-1.93.79-3.91,1.58-5.72,2.28L5.33,44.88C6,43.24,6.66,41.46,7.38,39.7ZM24,39l5,5H19ZM43.71,2.69a5.27,5.27,0,0,1,7.58,0,5.27,5.27,0,0,1,0,7.58l-1,1L42.71,3.69ZM4.94,45.9l3.14,3.15c-2,.77-3.79,1.39-4.87,1.72C3.54,49.69,4.16,47.94,4.94,45.9ZM44,50v3H40V50H39v3H35V50H34v3H30V50H29v3H25V50H24v3H20V50H19v3H15V50H14v3H10V50H9v3H5V51.23C6.14,50.84,16,47,16,47l.2-.2h0L18,45H31.41L24.7,38.28l6.08-6.08L51.59,53H45V50Z"/><polygon class="cls-3" points="10 33.58 10 25 14.29 29.29 15 28.58 9 22.59 9 34.59 10 33.58"/></g></g></g></g></svg>