<svg xmlns="http://www.w3.org/2000/svg" viewBox="0 0 56 46"><defs><style>.cls-1{opacity:0.06;}.cls-2{fill:#fff;}.cls-3{fill:#e13a86;}</style></defs><title>development</title><g id="Vrstva_2" data-name="Vrstva 2"><g id="Vrstva_1-2" data-name="Vrstva 1"><g id="development"><g id="coding" class="cls-1"><path class="cls-2" d="M54,2H4A2,2,0,0,0,2,4V44a2,2,0,0,0,2,2H54a2,2,0,0,0,2-2V4A2,2,0,0,0,54,2Zm1,42a1,1,0,0,1-1,1H4a1,1,0,0,1-1-1V14H55Zm0-31H3V4A1,1,0,0,1,4,3H54a1,1,0,0,1,1,1Z"/><path class="cls-2" d="M8,5.5A2.5,2.5,0,1,0,10.5,8,2.5,2.5,0,0,0,8,5.5Zm0,4A1.5,1.5,0,1,1,9.5,8,1.5,1.5,0,0,1,8,9.5Z"/><path class="cls-2" d="M14,5.5A2.5,2.5,0,1,0,16.5,8,2.5,2.5,0,0,0,14,5.5Zm0,4A1.5,1.5,0,1,1,15.5,8,1.5,1.5,0,0,1,14,9.5Z"/><path class="cls-2" d="M20,5.5A2.5,2.5,0,1,0,22.5,8,2.5,2.5,0,0,0,20,5.5Zm0,4A1.5,1.5,0,1,1,21.5,8,1.5,1.5,0,0,1,20,9.5Z"/><path class="cls-2" d="M49,6H37a1,1,0,0,0-1,1V9a1,1,0,0,0,1,1H49a1,1,0,0,0,1-1V7A1,1,0,0,0,49,6Zm0,3H37V7H49Z"/><rect class="cls-2" x="17.23" y="29.5" width="21.54" height="1" transform="translate(-10.25 44.86) rotate(-68.2)"/><polygon class="cls-2" points="21.33 36.62 13.76 30 21.33 23.38 20.67 22.62 12.24 30 20.67 37.38 21.33 36.62"/><polygon class="cls-2" points="35.33 37.38 43.76 30 35.33 22.62 34.67 23.38 42.24 30 34.67 36.62 35.33 37.38"/></g><g id="coding-2" data-name="coding"><path class="cls-3" d="M52,0H2A2,2,0,0,0,0,2V42a2,2,0,0,0,2,2H52a2,2,0,0,0,2-2V2A2,2,0,0,0,52,0Zm1,42a1,1,0,0,1-1,1H2a1,1,0,0,1-1-1V12H53Zm0-31H1V2A1,1,0,0,1,2,1H52a1,1,0,0,1,1,1Z"/><path class="cls-3" d="M6,3.5A2.5,2.5,0,1,0,8.5,6,2.5,2.5,0,0,0,6,3.5Zm0,4A1.5,1.5,0,1,1,7.5,6,1.5,1.5,0,0,1,6,7.5Z"/><path class="cls-3" d="M12,3.5A2.5,2.5,0,1,0,14.5,6,2.5,2.5,0,0,0,12,3.5Zm0,4A1.5,1.5,0,1,1,13.5,6,1.5,1.5,0,0,1,12,7.5Z"/><path class="cls-3" d="M18,3.5A2.5,2.5,0,1,0,20.5,6,2.5,2.5,0,0,0,18,3.5Zm0,4A1.5,1.5,0,1,1,19.5,6,1.5,1.5,0,0,1,18,7.5Z"/><path class="cls-3" d="M47,4H35a1,1,0,0,0-1,1V7a1,1,0,0,0,1,1H47a1,1,0,0,0,1-1V5A1,1,0,0,0,47,4Zm0,3H35V5H47Z"/><rect class="cls-3" x="15.23" y="27.5" width="21.54" height="1" transform="translate(-9.65 41.74) rotate(-68.2)"/><polygon class="cls-3" points="19.33 34.62 11.76 28 19.33 21.38 18.67 20.62 10.24 28 18.67 35.38 19.33 34.62"/><polygon class="cls-3" points="33.33 35.38 41.76 28 33.33 20.62 32.67 21.38 40.24 28 32.67 34.62 33.33 35.38"/></g></g></g></g></svg>