<svg xmlns="http://www.w3.org/2000/svg" viewBox="0 0 53.8 56"><defs><style>.cls-1{opacity:0.06;}.cls-2{fill:#fff;}.cls-3{fill:#e13a86;}</style></defs><title>ecommerce</title><g id="Vrstva_2" data-name="Vrstva 2"><g id="Vrstva_1-2" data-name="Vrstva 1"><g id="ecommerce"><g id="e-commerce_solution" data-name="e-commerce solution" class="cls-1"><path class="cls-2" d="M20,18a.32.32,0,0,1,.17-.22l3-.6.19,0h.07l.67-.1.15-.66a11.86,11.86,0,0,1,1.56-3.77l.37-.58-.4-.55,0-.05-.12-.17L24,8.67a.31.31,0,0,1,0-.28L25.39,7a.28.28,0,0,1,.17-.05.2.2,0,0,1,.11,0l2.58,1.72.17.12,0,0,.55.4.57-.36A12,12,0,0,1,33.36,7.3L34,7.15l.11-.67V6.41l0-.19.61-3A.27.27,0,0,1,35,3h2a.27.27,0,0,1,.21.18l.61,3c0,.07,0,.15,0,.27l.11.67.66.15A12,12,0,0,1,42.4,8.87l.57.36.55-.4,0,0,.18-.12L46.32,7a.2.2,0,0,1,.11,0A.26.26,0,0,1,46.6,7L48,8.39a.31.31,0,0,1,0,.28l-1.72,2.58-.15.22-.41.55.37.58a11.76,11.76,0,0,1,1.56,3.77l.15.66.67.1h.05l.22,0,3,.6A.33.33,0,0,1,52,18v2h1V18a1.29,1.29,0,0,0-1-1.2l-3-.6-.31-.05A12.75,12.75,0,0,0,47,12.06l.19-.26,1.72-2.57a1.28,1.28,0,0,0-.16-1.54L47.31,6.27a1.27,1.27,0,0,0-.88-.34,1.18,1.18,0,0,0-.66.19L43.19,7.84,42.93,8a12.9,12.9,0,0,0-4.08-1.69c0-.11,0-.22-.05-.31l-.61-3A1.28,1.28,0,0,0,37,2H35a1.28,1.28,0,0,0-1.2,1l-.61,3c0,.09,0,.2,0,.31A12.9,12.9,0,0,0,29.06,8l-.26-.18L26.22,6.12a1.18,1.18,0,0,0-.66-.19,1.27,1.27,0,0,0-.88.34L23.27,7.69a1.28,1.28,0,0,0-.16,1.54l1.72,2.57.19.26a13,13,0,0,0-1.7,4.09L23,16.2l-3,.6A1.28,1.28,0,0,0,19,18v2h1Z"/><path class="cls-2" d="M44.94,20c0-.33.06-.66.06-1a9,9,0,0,0-18,0c0,.34,0,.67.05,1h1A8.26,8.26,0,0,1,28,19a8,8,0,0,1,16,0,8.26,8.26,0,0,1-.07,1Z"/><path class="cls-2" d="M39.86,20A4.09,4.09,0,0,0,40,19a4,4,0,1,0-8,0,4.09,4.09,0,0,0,.13,1h1a3,3,0,1,1,5.63,0Z"/><rect class="cls-2" x="2" y="33" width="13" height="1"/><rect class="cls-2" x="8" y="29" width="9" height="1"/><rect class="cls-2" x="3" y="21" width="10" height="1"/><path class="cls-2" d="M22.05,38.76l27-3v0a.49.49,0,0,0,.41-.31l4.25-11.89A1.81,1.81,0,0,0,51.86,21H47v2.74a12.46,12.46,0,0,1-.87,1.66l-.35.6.4.55.14.2.68,1v2.86l-.4.4a.28.28,0,0,1-.17.05.2.2,0,0,1-.11,0l-2.58-1.72-.21-.16-.55-.4-.58.36a4.1,4.1,0,0,1-.4.23V28h4V27H41v2.88a11.09,11.09,0,0,1-2.37.82l-.67.18-.1.67c0,.09,0,.17,0,.23L37.58,33H35v2h0a.27.27,0,0,1-.22-.18l-.61-3,0-.19v-.07L34,30.85l-.66-.15A11.76,11.76,0,0,1,30,29.36V28h4v-.23c.33.07.66.13,1,.17V32h1V28h4v-.95A8.48,8.48,0,0,0,41.64,26H42v-.31A9.15,9.15,0,0,0,44.47,22H46V21H41v4.23a8,8,0,0,1-11-.95V22h3.34a4,4,0,0,0,1.66.92V26h1V23.05A3.87,3.87,0,0,0,38.65,22H40V21H35v.81a3.17,3.17,0,0,1-1-.6V21H29v1.86A7.94,7.94,0,0,1,28.26,21H18.54L14.24,3A1.34,1.34,0,0,0,13,2H4A2,2,0,0,0,4,6H14.06L21.4,37.89c-1.58.43-3.9,1.76-3.9,4.51a4.55,4.55,0,0,0,1.31,3.49,4.54,4.54,0,0,0,3,1.11H23v5a1,1,0,0,0,2,0l1.07-2.15A3,3,0,0,1,27,52a3,3,0,1,1-5-2.22V48.55a4,4,0,1,0,4.54.38l1-1.93H43v5a1,1,0,0,0,2,0l1.07-2.15A3,3,0,0,1,47,52a3,3,0,1,1-5-2.22V48.55a4,4,0,1,0,4.54.38l1-1.93H49a.5.5,0,0,0,0-1H22a3.66,3.66,0,0,1-2.48-.85,3.6,3.6,0,0,1-1-2.75C18.5,39.41,21.94,38.78,22.05,38.76ZM4,5A1,1,0,0,1,4,3h9a.36.36,0,0,1,.27.21L13.72,5ZM47,25.89V26l0,0Zm1,3.37,0,.07a.31.31,0,0,1,0,.28h0ZM38.8,32c0-.09,0-.2.05-.31A12.22,12.22,0,0,0,41,31v1h1V30.52q.48-.25.93-.54l.26.18,2.58,1.72a1.18,1.18,0,0,0,.66.19,1.27,1.27,0,0,0,.57-.15V32h1V31l.72-.73a1.28,1.28,0,0,0,.16-1.54L48.36,28h1.57l.35-1H47.69l-.53-.8L47,26h1V24a13.17,13.17,0,0,0,.63-2h3.23a.94.94,0,0,1,.81.34,1,1,0,0,1,0,.87l-4.15,11.6-.57.07V33H47v2l-5,.55V34h4V33H41v2.65l-5,.56V36h1a1.28,1.28,0,0,0,1.19-1l.21-1H40V33H38.59ZM36,34h1.37l-.16.82A.27.27,0,0,1,37,35H36Zm-1,2h0v.32l-5,.55V34h3.59l.21,1A1.28,1.28,0,0,0,35,36Zm8.4-14A8.28,8.28,0,0,1,42,24.27V22ZM27.52,22A9.12,9.12,0,0,0,29,24.64V26h1v-.31A8.75,8.75,0,0,0,31.89,27H29v1.78l-.53.39,0,0-.18.12-2.57,1.72a.2.2,0,0,1-.11,0,.28.28,0,0,1-.17-.05L24,29.63v-.38L24.83,28H28V27H25.5l.17-.25.12-.17,0,0,.4-.55-.37-.58A11.89,11.89,0,0,1,24.4,22ZM21.3,33l-1.15-5H22V27H19.92l-1.15-5H22v-.4l1,.2V26h1V24a13.47,13.47,0,0,0,1,2l-.19.26-.53.8H23v2.05a1.3,1.3,0,0,0,0,.78V32h1v-.95l.68.68a1.27,1.27,0,0,0,.88.34,1.18,1.18,0,0,0,.66-.19l2.58-1.72L29,30v2h1V30.52a13,13,0,0,0,3.14,1.15c0,.11,0,.22,0,.31l.21,1H29v4l-5,.56V34h4V33H23v4.65l-.61.06L21.53,34H22V33ZM44,47h2.38l-.69,1.39-.45.89-1.13,2.27-.11.21ZM24,47h2.38l-.69,1.39-.45.89-1.13,2.27-.11.21Z"/></g><g id="e-commerce_solution-2" data-name="e-commerce solution"><path class="cls-3" d="M18,16a.32.32,0,0,1,.17-.22l3-.6.19,0h.07l.67-.1.15-.66a11.86,11.86,0,0,1,1.56-3.77l.37-.58-.4-.55,0-.05-.12-.17L22,6.67a.31.31,0,0,1,0-.28L23.39,5a.28.28,0,0,1,.17-.05.2.2,0,0,1,.11,0l2.58,1.72.17.12,0,0,.55.4.57-.36A12,12,0,0,1,31.36,5.3L32,5.15l.11-.67V4.41l0-.19.61-3A.27.27,0,0,1,33,1h2a.27.27,0,0,1,.21.18l.61,3c0,.07,0,.15,0,.27l.11.67.66.15A12,12,0,0,1,40.4,6.87l.57.36.55-.4,0,0,.18-.12L44.32,5a.2.2,0,0,1,.11,0A.26.26,0,0,1,44.6,5L46,6.39a.31.31,0,0,1,0,.28L44.32,9.25l-.15.22-.41.55.37.58a11.76,11.76,0,0,1,1.56,3.77l.15.66.67.1h.05l.22,0,3,.6A.33.33,0,0,1,50,16v2h1V16a1.29,1.29,0,0,0-1-1.2l-3-.6-.31,0A12.75,12.75,0,0,0,45,10.06l.19-.26,1.72-2.57a1.28,1.28,0,0,0-.16-1.54L45.31,4.27a1.27,1.27,0,0,0-.88-.34,1.18,1.18,0,0,0-.66.19L41.19,5.84,40.93,6a12.9,12.9,0,0,0-4.08-1.69c0-.11,0-.22-.05-.31l-.61-3A1.28,1.28,0,0,0,35,0H33a1.28,1.28,0,0,0-1.2,1l-.61,3c0,.09,0,.2-.05.31A12.9,12.9,0,0,0,27.06,6l-.26-.18L24.22,4.12a1.18,1.18,0,0,0-.66-.19,1.27,1.27,0,0,0-.88.34L21.27,5.69a1.28,1.28,0,0,0-.16,1.54L22.83,9.8l.19.26a13,13,0,0,0-1.7,4.09l-.31,0-3,.6A1.28,1.28,0,0,0,17,16v2h1Z"/><path class="cls-3" d="M42.94,18c0-.33.06-.66.06-1a9,9,0,0,0-18,0c0,.34,0,.67.05,1h1A8.26,8.26,0,0,1,26,17a8,8,0,0,1,16,0,8.26,8.26,0,0,1-.07,1Z"/><path class="cls-3" d="M37.86,18A4.09,4.09,0,0,0,38,17a4,4,0,1,0-8,0,4.09,4.09,0,0,0,.13,1h1.05a3,3,0,1,1,5.63,0Z"/><rect class="cls-3" y="31" width="13" height="1"/><rect class="cls-3" x="6" y="27" width="9" height="1"/><rect class="cls-3" x="1" y="19" width="10" height="1"/><path class="cls-3" d="M20.05,36.76l27-3v0a.49.49,0,0,0,.41-.31l4.25-11.89A1.81,1.81,0,0,0,49.86,19H45v2.74a12.46,12.46,0,0,1-.87,1.66l-.35.6.4.55.14.2.68,1v2.86l-.4.4a.28.28,0,0,1-.17.05.2.2,0,0,1-.11,0l-2.58-1.72-.21-.16-.55-.4-.58.36a4.1,4.1,0,0,1-.4.23V26h4V25H39v2.88a11.09,11.09,0,0,1-2.37.82l-.67.18-.1.67c0,.09,0,.17,0,.23L35.58,31H33v2h0a.27.27,0,0,1-.22-.18l-.61-3,0-.19v-.07L32,28.85l-.66-.15A11.76,11.76,0,0,1,28,27.36V26h4v-.23c.33.07.66.13,1,.17V30h1V26h4v-.95A8.48,8.48,0,0,0,39.64,24H40v-.31A9.15,9.15,0,0,0,42.47,20H44V19H39v4.23a8,8,0,0,1-11-.95V20h3.34a4,4,0,0,0,1.66.92V24h1V21.05A3.87,3.87,0,0,0,36.65,20H38V19H33v.81a3.17,3.17,0,0,1-1-.6V19H27v1.86A7.94,7.94,0,0,1,26.26,19H16.54L12.24,1A1.34,1.34,0,0,0,11,0H2A2,2,0,0,0,2,4H12.06L19.4,35.89c-1.58.43-3.9,1.76-3.9,4.51a4.55,4.55,0,0,0,1.31,3.49,4.54,4.54,0,0,0,3,1.11H21v5a1,1,0,0,0,2,0l1.07-2.15A3,3,0,0,1,25,50a3,3,0,1,1-5-2.22V46.55a4,4,0,1,0,4.54.38l1-1.93H41v5a1,1,0,0,0,2,0l1.07-2.15A3,3,0,0,1,45,50a3,3,0,1,1-5-2.22V46.55a4,4,0,1,0,4.54.38l1-1.93H47a.5.5,0,0,0,0-1H20a3.66,3.66,0,0,1-2.48-.85,3.6,3.6,0,0,1-1-2.75C16.5,37.41,19.94,36.78,20.05,36.76ZM2,3A1,1,0,0,1,2,1h9a.36.36,0,0,1,.27.21L11.72,3ZM45,23.89V24l0,0Zm1,3.37,0,.07a.31.31,0,0,1,0,.28h0ZM36.8,30c0-.09,0-.2.05-.31A12.22,12.22,0,0,0,39,29v1h1V28.52q.48-.25.93-.54l.26.18,2.58,1.72a1.18,1.18,0,0,0,.66.19,1.27,1.27,0,0,0,.57-.15V30h1V29l.72-.73a1.28,1.28,0,0,0,.16-1.54L46.36,26h1.57l.35-1H45.69l-.53-.8L45,24h1V22a13.17,13.17,0,0,0,.63-2h3.23a.94.94,0,0,1,.81.34,1,1,0,0,1,0,.87l-4.15,11.6-.57.07V31H45v2l-5,.55V32h4V31H39v2.65l-5,.56V34h1a1.28,1.28,0,0,0,1.19-1l.21-1H38V31H36.59ZM34,32h1.37l-.16.82A.27.27,0,0,1,35,33H34Zm-1,2h0v.32l-5,.55V32h3.59l.21,1A1.28,1.28,0,0,0,33,34Zm8.4-14A8.28,8.28,0,0,1,40,22.27V20ZM25.52,20A9.12,9.12,0,0,0,27,22.64V24h1v-.31A8.75,8.75,0,0,0,29.89,25H27v1.78l-.53.39,0,0-.18.12-2.57,1.72a.2.2,0,0,1-.11,0,.28.28,0,0,1-.17-.05L22,27.63v-.38L22.83,26H26V25H23.5l.17-.25.12-.17,0,0,.4-.55-.37-.58A11.89,11.89,0,0,1,22.4,20ZM19.3,31l-1.15-5H20V25H17.92l-1.15-5H20v-.4l1,.2V24h1V22a13.47,13.47,0,0,0,1,2l-.19.26-.53.8H21v2.05a1.3,1.3,0,0,0,0,.78V30h1v-.95l.68.68a1.27,1.27,0,0,0,.88.34,1.18,1.18,0,0,0,.66-.19l2.58-1.72L27,28v2h1V28.52a13,13,0,0,0,3.14,1.15c0,.11,0,.22.05.31l.21,1H27v4l-5,.56V32h4V31H21v4.65l-.61.06L19.53,32H20V31ZM42,45h2.38l-.69,1.39-.45.89-1.13,2.27-.11.21ZM22,45h2.38l-.69,1.39-.45.89-1.13,2.27-.11.21Z"/></g></g></g></g></svg>