<?xml version="1.0" encoding="utf-8"?>
<!-- Generator: Adobe Illustrator 23.0.3, SVG Export Plug-In . SVG Version: 6.00 Build 0)  -->
<svg version="1.1" id="Vrstva_1" xmlns="http://www.w3.org/2000/svg" xmlns:xlink="http://www.w3.org/1999/xlink" x="0px" y="0px"
	 viewBox="0 0 24 24" style="enable-background:new 0 0 24 24;" xml:space="preserve">
<style type="text/css">
	.st0{fill:url(#SVGID_1_);}
	.st1{fill:#FFFFFF;}
</style>
<linearGradient id="SVGID_1_" gradientUnits="userSpaceOnUse" x1="3.5149" y1="3.5149" x2="20.4851" y2="20.4851">
	<stop  offset="0" style="stop-color:#533FD2"/>
	<stop  offset="0.3196" style="stop-color:#B7269A"/>
	<stop  offset="0.6166" style="stop-color:#E01F4D"/>
	<stop  offset="1" style="stop-color:#F9C05B"/>
</linearGradient>
<circle class="st0" cx="12" cy="12" r="12"/>
<path class="st1" d="M12,6.5c1.8,0,2,0,2.7,0c1.8,0.1,2.7,0.9,2.7,2.7c0,0.7,0,0.9,0,2.7c0,1.8,0,2,0,2.7c-0.1,1.8-0.9,2.7-2.7,2.7
	c-0.7,0-0.9,0-2.7,0c-1.8,0-2,0-2.7,0c-1.8-0.1-2.7-0.9-2.7-2.7c0-0.7,0-0.9,0-2.7c0-1.8,0-2,0-2.7c0.1-1.8,0.9-2.7,2.7-2.7
	C10,6.5,10.2,6.5,12,6.5z M12,5.3c-1.8,0-2,0-2.8,0C6.8,5.5,5.5,6.8,5.4,9.2c0,0.7,0,0.9,0,2.8s0,2,0,2.8c0.1,2.4,1.5,3.8,3.9,3.9
	c0.7,0,0.9,0,2.8,0s2,0,2.8,0c2.4-0.1,3.8-1.5,3.9-3.9c0-0.7,0-0.9,0-2.8s0-2,0-2.8c-0.1-2.4-1.5-3.8-3.9-3.9
	C14,5.3,13.8,5.3,12,5.3z M12,8.6c-1.9,0-3.4,1.5-3.4,3.4s1.5,3.4,3.4,3.4s3.4-1.5,3.4-3.4C15.4,10.1,13.9,8.6,12,8.6z M12,14.2
	c-1.2,0-2.2-1-2.2-2.2c0-1.2,1-2.2,2.2-2.2s2.2,1,2.2,2.2C14.2,13.2,13.2,14.2,12,14.2z M15.6,7.6c-0.4,0-0.8,0.4-0.8,0.8
	c0,0.4,0.4,0.8,0.8,0.8c0.4,0,0.8-0.4,0.8-0.8C16.4,8,16,7.6,15.6,7.6z"/>
</svg>
