<svg xmlns="http://www.w3.org/2000/svg" viewBox="0 0 65.5 49"><defs><style>.cls-1{opacity:0.06;}.cls-2{fill:#fff;}.cls-3{fill:#e13a86;}</style></defs><title>marketing</title><g id="Vrstva_2" data-name="Vrstva 2"><g id="Vrstva_1-2" data-name="Vrstva 1"><g id="marketing"><g class="cls-1"><path class="cls-2" d="M49,7a2,2,0,0,0-2,2,2,2,0,0,0,.28,1L43,14.28A2,2,0,0,0,42,14a2,2,0,0,0-1.65.87L33,12.19A1.23,1.23,0,0,0,33,12a2,2,0,1,0-3.36,1.46l-4.15,7.61a1.94,1.94,0,0,0-2.26,1L18,20.93A2,2,0,0,0,14,21a2,2,0,0,0,.42,1.21l-4.63,6A1.9,1.9,0,0,0,9,28a2,2,0,1,0,2,2,2,2,0,0,0-.42-1.21l4.63-6A1.9,1.9,0,0,0,16,23a2,2,0,0,0,1.77-1.09L23,23.07a2,2,0,1,0,3.35-1.53l4.15-7.61a1.95,1.95,0,0,0,2.14-.8L40,15.81A1.23,1.23,0,0,0,40,16a2,2,0,0,0,4,0,2,2,0,0,0-.28-1L48,10.72A2,2,0,0,0,49,11a2,2,0,0,0,0-4ZM9,31a1,1,0,1,1,1-1A1,1,0,0,1,9,31Zm7-9a1,1,0,1,1,1-1A1,1,0,0,1,16,22Zm9,2a1,1,0,1,1,1-1A1,1,0,0,1,25,24Zm6-11a1,1,0,1,1,1-1A1,1,0,0,1,31,13Zm11,4a1,1,0,1,1,1-1A1,1,0,0,1,42,17Zm7-7a1,1,0,1,1,1-1A1,1,0,0,1,49,10Z"/><g id="Search_optimization" data-name="Search optimization"><path class="cls-2" d="M42.23,23.9A6.62,6.62,0,1,0,50,29.18,6.63,6.63,0,0,0,42.23,23.9Zm2.36,12.52a6.11,6.11,0,1,1,4.87-7.14A6.12,6.12,0,0,1,44.59,36.42Z"/><path class="cls-2" d="M64.51,39.54l-2.73-1.86a1.07,1.07,0,0,0-.89-.1l-2.34,1L51.91,34l-.41.59-.77-.53a8,8,0,0,0,.73-5.16,8.17,8.17,0,1,0-2,7l.77.53-.4.59,6.64,4.53,0,2.52a1.1,1.1,0,0,0,.42.8l2.73,1.86a1.35,1.35,0,0,0,.92.19l2.5-.47-3-2,0-2.59,2.41-1,3,2L65,40.33A1.4,1.4,0,0,0,64.51,39.54ZM44.87,37.92A7.64,7.64,0,1,1,51,29,7.64,7.64,0,0,1,44.87,37.92Zm5-2.46a8.85,8.85,0,0,0,.65-1l.72.5-.64,1Zm14.93,6.26-2.19-1.49-3,1.2,0,3.21,2.19,1.49-1.3.24a.93.93,0,0,1-.54-.11L57.2,44.4A.55.55,0,0,1,57,44l0-2.79-6.44-4.4.58-.86L57,40a.27.27,0,0,0,.19,0,.25.25,0,0,0,.16-.11.25.25,0,0,0-.06-.35l-5.83-4L52,34.7l6.45,4.4L61.12,38a.59.59,0,0,1,.37.06L64.22,40a.88.88,0,0,1,.3.46Z"/><path class="cls-2" d="M46.47,26a.24.24,0,0,0-.35.07.25.25,0,0,0,.06.35,4.84,4.84,0,0,1-5.45,8,.25.25,0,0,0-.35.06.27.27,0,0,0,.06.36,5.35,5.35,0,0,0,6-8.84Z"/></g><path class="cls-2" d="M41,46H37.71l-1.42-5H50.15l-1.43-1H5a1,1,0,0,1-1-1V37H34.62a6.17,6.17,0,0,1-1.25-1H4V4A1,1,0,0,1,5,3H55a1,1,0,0,1,1,1V32.75l1,1.33V4a2,2,0,0,0-2-2H5A2,2,0,0,0,3,4V39a2,2,0,0,0,2,2H23.71l-1.42,5H19a2,2,0,0,0-2,2v1H43V48A2,2,0,0,0,41,46ZM24.75,41h10.5l1.42,5H23.33ZM18,48a1,1,0,0,1,1-1H41a1,1,0,0,1,1,1Z"/><path class="cls-2" d="M32.12,33H6V5H54V30.08l1,1.34V4H5V34H32.27A5.11,5.11,0,0,1,32.12,33Z"/></g><path class="cls-3" d="M46,5a2,2,0,0,0-2,2,2,2,0,0,0,.28,1L40,12.28A2,2,0,0,0,39,12a2,2,0,0,0-1.65.87L30,10.19A1.23,1.23,0,0,0,30,10a2,2,0,1,0-3.36,1.46l-4.15,7.61a1.94,1.94,0,0,0-2.26,1L15,18.93A2,2,0,0,0,11,19a2,2,0,0,0,.42,1.21l-4.63,6A1.9,1.9,0,0,0,6,26a2,2,0,1,0,2,2,2,2,0,0,0-.42-1.21l4.63-6A1.9,1.9,0,0,0,13,21a2,2,0,0,0,1.77-1.09L20,21.07a2,2,0,1,0,3.35-1.53l4.15-7.61a1.95,1.95,0,0,0,2.14-.8L37,13.81A1.23,1.23,0,0,0,37,14a2,2,0,0,0,4,0,2,2,0,0,0-.28-1L45,8.72A2,2,0,0,0,46,9a2,2,0,0,0,0-4ZM6,29a1,1,0,1,1,1-1A1,1,0,0,1,6,29Zm7-9a1,1,0,1,1,1-1A1,1,0,0,1,13,20Zm9,2a1,1,0,1,1,1-1A1,1,0,0,1,22,22Zm6-11a1,1,0,1,1,1-1A1,1,0,0,1,28,11Zm11,4a1,1,0,1,1,1-1A1,1,0,0,1,39,15Zm7-7a1,1,0,1,1,1-1A1,1,0,0,1,46,8Z"/><g id="Search_optimization-2" data-name="Search optimization"><path class="cls-3" d="M39.23,21.9A6.62,6.62,0,1,0,47,27.18,6.63,6.63,0,0,0,39.23,21.9Zm2.36,12.52a6.11,6.11,0,1,1,4.87-7.14A6.12,6.12,0,0,1,41.59,34.42Z"/><path class="cls-3" d="M61.51,37.54l-2.73-1.86a1.07,1.07,0,0,0-.89-.1l-2.34,1L48.91,32l-.41.59-.77-.53a8,8,0,0,0,.73-5.16,8.17,8.17,0,1,0-2,7l.77.53-.4.59,6.64,4.53,0,2.52a1.1,1.1,0,0,0,.42.8l2.73,1.86a1.35,1.35,0,0,0,.92.19l2.5-.47-3-2,0-2.59,2.41-1,3,2L62,38.33A1.4,1.4,0,0,0,61.51,37.54ZM41.87,35.92A7.64,7.64,0,1,1,48,27,7.64,7.64,0,0,1,41.87,35.92Zm5-2.46a8.85,8.85,0,0,0,.65-1l.72.5-.64,1Zm14.93,6.26-2.19-1.49-3,1.2,0,3.21,2.19,1.49-1.3.24a.93.93,0,0,1-.54-.11L54.2,42.4A.55.55,0,0,1,54,42l0-2.79-6.44-4.4.58-.86L54,38a.27.27,0,0,0,.19,0,.25.25,0,0,0,.16-.11.25.25,0,0,0-.06-.35l-5.83-4L49,32.7l6.45,4.4L58.12,36a.59.59,0,0,1,.37.06L61.22,38a.88.88,0,0,1,.3.46Z"/><path class="cls-3" d="M43.47,24a.24.24,0,0,0-.35.07.25.25,0,0,0,.06.35,4.84,4.84,0,0,1-5.45,8,.25.25,0,0,0-.35.06.27.27,0,0,0,.06.36,5.35,5.35,0,0,0,6-8.84Z"/></g><path class="cls-3" d="M38,44H34.71l-1.42-5H47.15l-1.43-1H2a1,1,0,0,1-1-1V35H31.62a6.17,6.17,0,0,1-1.25-1H1V2A1,1,0,0,1,2,1H52a1,1,0,0,1,1,1V30.75l1,1.33V2a2,2,0,0,0-2-2H2A2,2,0,0,0,0,2V37a2,2,0,0,0,2,2H20.71l-1.42,5H16a2,2,0,0,0-2,2v1H40V46A2,2,0,0,0,38,44ZM21.75,39h10.5l1.42,5H20.33ZM15,46a1,1,0,0,1,1-1H38a1,1,0,0,1,1,1Z"/><path class="cls-3" d="M29.12,31H3V3H51V28.08l1,1.34V2H2V32H29.27A5.11,5.11,0,0,1,29.12,31Z"/></g></g></g></svg>