<svg xmlns="http://www.w3.org/2000/svg" viewBox="0 0 56 55"><defs><style>.cls-1{opacity:0.06;}.cls-2{fill:#fff;}.cls-3{fill:#e13a86;}</style></defs><title>research</title><g id="Vrstva_2" data-name="Vrstva 2"><g id="Vrstva_1-2" data-name="Vrstva 1"><g id="research"><g id="social_engagement" data-name="social engagement" class="cls-1"><path class="cls-2" d="M37,36.5c0,4.69-3.36,8.5-7.5,8.5h-12l-.09.91C17,50.37,15,52.86,11,53.69c2-2.18,2.41-4.93,2.51-7.65l0-1h-2A9,9,0,0,1,3,36.5v-10C3,22.36,6.81,19,11.5,19H19V18H11.5C6.55,18,2,21.55,2,26.5v10A9.91,9.91,0,0,0,11.5,46h1c-.15,4-1,7-5,9,5.84,0,10.25-2,10.91-9H29.5c5,0,8.5-4.55,8.5-9.5V29H37Z"/><path class="cls-2" d="M48.5,2h-20C24.1,2,20,5.1,20,9.5v10A8.91,8.91,0,0,0,28.5,28H41.59c.66,7,5.07,9,10.91,9-4-2-4.82-5-5-9h1c4.4,0,7.5-4.1,7.5-8.5V9.5A7.19,7.19,0,0,0,48.5,2ZM55,19.5c0,3.61-2.49,7.5-6.5,7.5h-2l0,1c.1,2.72.53,5.47,2.51,7.65-4-.83-6-3.32-6.45-7.78L42.5,27h-14A7.89,7.89,0,0,1,21,19.5V9.5c0-4,3.89-6.5,7.5-6.5h20A6.22,6.22,0,0,1,55,9.5Z"/><path class="cls-2" d="M46.5,13.5a3,3,0,1,0,3,3A3,3,0,0,0,46.5,13.5Zm0,5a2,2,0,1,1,2-2A2,2,0,0,1,46.5,18.5Z"/><path class="cls-2" d="M38.5,13.5a3,3,0,1,0,3,3A3,3,0,0,0,38.5,13.5Zm0,5a2,2,0,1,1,2-2A2,2,0,0,1,38.5,18.5Z"/><path class="cls-2" d="M30.5,13.5a3,3,0,1,0,3,3A3,3,0,0,0,30.5,13.5Zm0,5a2,2,0,1,1,2-2A2,2,0,0,1,30.5,18.5Z"/><path class="cls-2" d="M28.5,30.5a3,3,0,1,0,3,3A3,3,0,0,0,28.5,30.5Zm0,5a2,2,0,1,1,2-2A2,2,0,0,1,28.5,35.5Z"/><path class="cls-2" d="M20.5,30.5a3,3,0,1,0,3,3A3,3,0,0,0,20.5,30.5Zm0,5a2,2,0,1,1,2-2A2,2,0,0,1,20.5,35.5Z"/><path class="cls-2" d="M12.5,30.5a3,3,0,1,0,3,3A3,3,0,0,0,12.5,30.5Zm0,5a2,2,0,1,1,2-2A2,2,0,0,1,12.5,35.5Z"/></g><g id="social_engagement-2" data-name="social engagement"><path class="cls-3" d="M35,34.5c0,4.69-3.36,8.5-7.5,8.5h-12l-.09.91C15,48.37,13,50.86,9,51.69c2-2.18,2.41-4.93,2.51-7.65l0-1h-2A9,9,0,0,1,1,34.5v-10C1,20.36,4.81,17,9.5,17H17V16H9.5C4.55,16,0,19.55,0,24.5v10A9.91,9.91,0,0,0,9.5,44h1c-.15,4-1,7-5,9,5.84,0,10.25-2,10.91-9H27.5c5,0,8.5-4.55,8.5-9.5V27H35Z"/><path class="cls-3" d="M46.5,0h-20C22.1,0,18,3.1,18,7.5v10A8.91,8.91,0,0,0,26.5,26H39.59c.66,7,5.07,9,10.91,9-4-2-4.82-5-5-9h1c4.4,0,7.5-4.1,7.5-8.5V7.5A7.19,7.19,0,0,0,46.5,0ZM53,17.5c0,3.61-2.49,7.5-6.5,7.5h-2l0,1c.1,2.72.53,5.47,2.51,7.65-4-.83-6-3.32-6.45-7.78L40.5,25h-14A7.89,7.89,0,0,1,19,17.5V7.5c0-4,3.89-6.5,7.5-6.5h20A6.22,6.22,0,0,1,53,7.5Z"/><path class="cls-3" d="M44.5,11.5a3,3,0,1,0,3,3A3,3,0,0,0,44.5,11.5Zm0,5a2,2,0,1,1,2-2A2,2,0,0,1,44.5,16.5Z"/><path class="cls-3" d="M36.5,11.5a3,3,0,1,0,3,3A3,3,0,0,0,36.5,11.5Zm0,5a2,2,0,1,1,2-2A2,2,0,0,1,36.5,16.5Z"/><path class="cls-3" d="M28.5,11.5a3,3,0,1,0,3,3A3,3,0,0,0,28.5,11.5Zm0,5a2,2,0,1,1,2-2A2,2,0,0,1,28.5,16.5Z"/><path class="cls-3" d="M26.5,28.5a3,3,0,1,0,3,3A3,3,0,0,0,26.5,28.5Zm0,5a2,2,0,1,1,2-2A2,2,0,0,1,26.5,33.5Z"/><path class="cls-3" d="M18.5,28.5a3,3,0,1,0,3,3A3,3,0,0,0,18.5,28.5Zm0,5a2,2,0,1,1,2-2A2,2,0,0,1,18.5,33.5Z"/><path class="cls-3" d="M10.5,28.5a3,3,0,1,0,3,3A3,3,0,0,0,10.5,28.5Zm0,5a2,2,0,1,1,2-2A2,2,0,0,1,10.5,33.5Z"/></g></g></g></g></svg>