<svg xmlns="http://www.w3.org/2000/svg" viewBox="0 0 54 56"><defs><style>.cls-1{opacity:0.06;}.cls-2{fill:#fff;}.cls-3{fill:#e13a86;}</style></defs><title>strategy</title><g id="Vrstva_2" data-name="Vrstva 2"><g id="Vrstva_1-2" data-name="Vrstva 1"><g id="strategy"><g id="blogging" class="cls-1"><path class="cls-2" d="M50,23H46a10.06,10.06,0,0,0-3-1.53A4,4,0,0,0,45,18h1a4,4,0,0,0,4-4V12a4,4,0,0,0-4-4H40a15.1,15.1,0,0,0-6.13-4.81A4,4,0,0,0,31,2H25a4,4,0,0,0-2.84,1.19A15,15,0,0,0,16,8H10a4,4,0,0,0-4,4v2a4,4,0,0,0,4,4h1a4,4,0,0,0,2.06,3.47,9.89,9.89,0,0,0-3,1.53H6a4,4,0,0,0-4,4v2a4,4,0,0,0,4,4h.22a10,10,0,0,0,9.18,8q-.28-.49-.54-1A9,9,0,0,1,7.24,33H9a4.1,4.1,0,0,0,4.12,4h3C14.46,37,13,35.88,13,34.5V32.86A4.06,4.06,0,0,0,14.65,32l.07-.06a3.39,3.39,0,0,0,.31-.34,1.63,1.63,0,0,0,.17-.2,2.92,2.92,0,0,0,.21-.32c.07-.11.12-.21.18-.32s.09-.2.13-.3a3.22,3.22,0,0,0,.14-.44,2.27,2.27,0,0,0,.06-.25A3.74,3.74,0,0,0,16,29V27a4,4,0,0,0-4-4h0a8.78,8.78,0,0,1,1.91-.73l1-.25v0H18a2.78,2.78,0,0,1-3-2.5V18h1a4,4,0,0,0,4-4V12a4,4,0,0,0-2.85-3.81,14,14,0,0,1,4.06-3.41A4.05,4.05,0,0,0,21,6V8a4,4,0,0,0,4,4h1l2,6,2-6h1a4,4,0,0,0,4-4V6a4.17,4.17,0,0,0-.21-1.23,14.09,14.09,0,0,1,4.07,3.42A4,4,0,0,0,36,12v2a4,4,0,0,0,4,4h1v1.5A2.78,2.78,0,0,1,38,22h3.12v0l1,.25a8.61,8.61,0,0,1,1.95.73H44a4,4,0,0,0-4,4v2a3.74,3.74,0,0,0,.08.75,2.27,2.27,0,0,0,.06.25,3.22,3.22,0,0,0,.14.44c0,.1.08.2.13.3s.11.21.18.32a2.92,2.92,0,0,0,.21.32,1.63,1.63,0,0,0,.17.2,3.39,3.39,0,0,0,.31.34l.07.06a4.06,4.06,0,0,0,1.65.88V34.5A2.78,2.78,0,0,1,40,37h3a4,4,0,0,0,4-4h1.76a9,9,0,0,1-7.62,6.92q-.26.55-.54,1a10,10,0,0,0,9.18-8H50a4,4,0,0,0,4-4V27A4,4,0,0,0,50,23ZM15,27v2a2.89,2.89,0,0,1-.06.56.29.29,0,0,1,0,.09l0,.1c0,.11-.06.22-.1.33l-.1.22c0,.08-.08.16-.13.24a2.29,2.29,0,0,1-.16.23l-.13.17-.21.23-.05,0,0,0a3,3,0,0,1-1.23.66l-.75.19V34.5a3,3,0,0,0,.34,1.4A3.07,3.07,0,0,1,10,33V32H6a3,3,0,0,1-3-3V27a3,3,0,0,1,3-3h6A3,3,0,0,1,15,27Zm4-15v2a3,3,0,0,1-3,3H14v2.5a3.05,3.05,0,0,0,.35,1.43A3,3,0,0,1,12,18V17H10a3,3,0,0,1-3-3V12a3,3,0,0,1,3-3h6A3,3,0,0,1,19,12ZM34,7V8a3,3,0,0,1-3,3H29.28l-.23.68L28,14.84,27,11.68,26.72,11H25a3,3,0,0,1-3-3V6a3,3,0,0,1,3-3h6a3,3,0,0,1,3,3Zm6,10a3,3,0,0,1-3-3V12a3,3,0,0,1,3-3h6a3,3,0,0,1,3,3v2a3,3,0,0,1-3,3H44v1a3,3,0,0,1-2.35,2.93A3.05,3.05,0,0,0,42,19.5V17H40ZM53,28v1a3,3,0,0,1-3,3H46v1a3,3,0,0,1-2.35,2.93A3.05,3.05,0,0,0,44,34.5V32.08l-.75-.19A3,3,0,0,1,42,31.22l0,0h0l-.24-.27-.12-.14a2.72,2.72,0,0,1-.16-.25,1.36,1.36,0,0,1-.13-.24,2,2,0,0,1-.1-.21,3.37,3.37,0,0,1-.1-.34l0-.1a.24.24,0,0,1,0-.08A2.89,2.89,0,0,1,41,29V27a3,3,0,0,1,3-3h6a3,3,0,0,1,3,3Z"/><circle class="cls-2" cx="44" cy="29" r="1"/><circle class="cls-2" cx="50" cy="29" r="1"/><circle class="cls-2" cx="47" cy="29" r="1"/><circle class="cls-2" cx="6" cy="29" r="1"/><circle class="cls-2" cx="12" cy="29" r="1"/><circle class="cls-2" cx="9" cy="29" r="1"/><circle class="cls-2" cx="10" cy="14" r="1"/><circle class="cls-2" cx="16" cy="14" r="1"/><circle class="cls-2" cx="13" cy="14" r="1"/><circle class="cls-2" cx="40" cy="14" r="1"/><circle class="cls-2" cx="46" cy="14" r="1"/><circle class="cls-2" cx="43" cy="14" r="1"/><circle class="cls-2" cx="25" cy="8" r="1"/><circle class="cls-2" cx="31" cy="8" r="1"/><circle class="cls-2" cx="28" cy="8" r="1"/><path class="cls-2" d="M33.19,42.33A3.82,3.82,0,0,1,31.5,42c-1-.75-.5-2.5-.5-4,.75-2.5,7-5.75,7-12.5-2,5-6.94,9-8,9-.69,0-1.38-15.5-2-15.5s-1.31,15.5-2,15.5c-1.06,0-6-4-8-9,0,6.75,6.25,10,7,12.5,0,1.5.5,3.25-.5,4a3.82,3.82,0,0,1-1.69.33c-1.67,0-4.46-.79-7.81-4.83,2.62,8.5,9,7.12,9,10V56h1V47.5c0-1.73-1.44-2.45-2.84-3.14a12.61,12.61,0,0,1-3.3-2.16,8.16,8.16,0,0,0,3.95,1.13A4.69,4.69,0,0,0,25,42.88l.07,0,.06-.05c1.19-.89,1.07-2.39,1-3.72C26,38.7,26,38.34,26,38v-.15l0-.14a9.42,9.42,0,0,0-2.39-3.26l-.63-.67A6.4,6.4,0,0,0,26,35.5c1.21,0,1.32-.6,2-8.43.68,7.83.79,8.43,2,8.43a6.4,6.4,0,0,0,3.06-1.72l-.63.67A9.42,9.42,0,0,0,30,37.71l0,.14V38c0,.34,0,.7-.06,1.08-.11,1.33-.23,2.83,1,3.72l.06.05.07,0a4.69,4.69,0,0,0,2.16.45,8.16,8.16,0,0,0,4-1.13,12.61,12.61,0,0,1-3.3,2.16c-1.4.69-2.84,1.41-2.84,3.14V56h1V47.5c0-2.88,6.38-1.5,9-10C37.65,41.54,34.86,42.33,33.19,42.33Z"/></g><g id="blogging-2" data-name="blogging"><path class="cls-3" d="M48,21H44a10.06,10.06,0,0,0-3-1.53A4,4,0,0,0,43,16h1a4,4,0,0,0,4-4V10a4,4,0,0,0-4-4H38a15.1,15.1,0,0,0-6.13-4.81A4,4,0,0,0,29,0H23a4,4,0,0,0-2.84,1.19A15,15,0,0,0,14,6H8a4,4,0,0,0-4,4v2a4,4,0,0,0,4,4H9a4,4,0,0,0,2.06,3.47,9.89,9.89,0,0,0-3,1.53H4a4,4,0,0,0-4,4v2a4,4,0,0,0,4,4h.22a10,10,0,0,0,9.18,8q-.28-.49-.54-1A9,9,0,0,1,5.24,31H7a4.1,4.1,0,0,0,4.12,4h3C12.46,35,11,33.88,11,32.5V30.86A4.06,4.06,0,0,0,12.65,30l.07-.06a3.39,3.39,0,0,0,.31-.34,1.63,1.63,0,0,0,.17-.2,2.92,2.92,0,0,0,.21-.32c.07-.11.12-.21.18-.32s.09-.2.13-.3a3.22,3.22,0,0,0,.14-.44,2.27,2.27,0,0,0,.06-.25A3.74,3.74,0,0,0,14,27V25a4,4,0,0,0-4-4h0a8.78,8.78,0,0,1,1.91-.73l1-.25v0H16a2.78,2.78,0,0,1-3-2.5V16h1a4,4,0,0,0,4-4V10a4,4,0,0,0-2.85-3.81,14,14,0,0,1,4.06-3.41A4.05,4.05,0,0,0,19,4V6a4,4,0,0,0,4,4h1l2,6,2-6h1a4,4,0,0,0,4-4V4a4.17,4.17,0,0,0-.21-1.23,14.09,14.09,0,0,1,4.07,3.42A4,4,0,0,0,34,10v2a4,4,0,0,0,4,4h1v1.5A2.78,2.78,0,0,1,36,20h3.12v0l1,.25a8.61,8.61,0,0,1,1.95.73H42a4,4,0,0,0-4,4v2a3.74,3.74,0,0,0,.08.75,2.27,2.27,0,0,0,.06.25,3.22,3.22,0,0,0,.14.44c0,.1.08.2.13.3s.11.21.18.32a2.92,2.92,0,0,0,.21.32,1.63,1.63,0,0,0,.17.2,3.39,3.39,0,0,0,.31.34l.07.06a4.06,4.06,0,0,0,1.65.88V32.5A2.78,2.78,0,0,1,38,35h3a4,4,0,0,0,4-4h1.76a9,9,0,0,1-7.62,6.92q-.26.55-.54,1a10,10,0,0,0,9.18-8H48a4,4,0,0,0,4-4V25A4,4,0,0,0,48,21ZM13,25v2a2.89,2.89,0,0,1-.06.56.29.29,0,0,1,0,.09l0,.1c0,.11-.06.22-.1.33l-.1.22c0,.08-.08.16-.13.24a2.29,2.29,0,0,1-.16.23l-.13.17-.21.23-.05,0,0,0a3,3,0,0,1-1.23.66l-.75.19V32.5a3,3,0,0,0,.34,1.4A3.07,3.07,0,0,1,8,31V30H4a3,3,0,0,1-3-3V25a3,3,0,0,1,3-3h6A3,3,0,0,1,13,25Zm4-15v2a3,3,0,0,1-3,3H12v2.5a3.05,3.05,0,0,0,.35,1.43A3,3,0,0,1,10,16V15H8a3,3,0,0,1-3-3V10A3,3,0,0,1,8,7h6A3,3,0,0,1,17,10ZM32,5V6a3,3,0,0,1-3,3H27.28l-.23.68L26,12.84,25,9.68,24.72,9H23a3,3,0,0,1-3-3V4a3,3,0,0,1,3-3h6a3,3,0,0,1,3,3Zm6,10a3,3,0,0,1-3-3V10a3,3,0,0,1,3-3h6a3,3,0,0,1,3,3v2a3,3,0,0,1-3,3H42v1a3,3,0,0,1-2.35,2.93A3.05,3.05,0,0,0,40,17.5V15H38ZM51,26v1a3,3,0,0,1-3,3H44v1a3,3,0,0,1-2.35,2.93A3.05,3.05,0,0,0,42,32.5V30.08l-.75-.19A3,3,0,0,1,40,29.22l0,0h0l-.24-.27-.12-.14a2.72,2.72,0,0,1-.16-.25,1.36,1.36,0,0,1-.13-.24,2,2,0,0,1-.1-.21,3.37,3.37,0,0,1-.1-.34l0-.1a.24.24,0,0,1,0-.08A2.89,2.89,0,0,1,39,27V25a3,3,0,0,1,3-3h6a3,3,0,0,1,3,3Z"/><circle class="cls-3" cx="42" cy="27" r="1"/><circle class="cls-3" cx="48" cy="27" r="1"/><circle class="cls-3" cx="45" cy="27" r="1"/><circle class="cls-3" cx="4" cy="27" r="1"/><circle class="cls-3" cx="10" cy="27" r="1"/><circle class="cls-3" cx="7" cy="27" r="1"/><circle class="cls-3" cx="8" cy="12" r="1"/><circle class="cls-3" cx="14" cy="12" r="1"/><circle class="cls-3" cx="11" cy="12" r="1"/><circle class="cls-3" cx="38" cy="12" r="1"/><circle class="cls-3" cx="44" cy="12" r="1"/><circle class="cls-3" cx="41" cy="12" r="1"/><circle class="cls-3" cx="23" cy="6" r="1"/><circle class="cls-3" cx="29" cy="6" r="1"/><circle class="cls-3" cx="26" cy="6" r="1"/><path class="cls-3" d="M31.19,40.33A3.82,3.82,0,0,1,29.5,40c-1-.75-.5-2.5-.5-4,.75-2.5,7-5.75,7-12.5-2,5-6.94,9-8,9-.69,0-1.38-15.5-2-15.5s-1.31,15.5-2,15.5c-1.06,0-6-4-8-9,0,6.75,6.25,10,7,12.5,0,1.5.5,3.25-.5,4a3.82,3.82,0,0,1-1.69.33c-1.67,0-4.46-.79-7.81-4.83,2.62,8.5,9,7.12,9,10V54h1V45.5c0-1.73-1.44-2.45-2.84-3.14a12.61,12.61,0,0,1-3.3-2.16,8.16,8.16,0,0,0,3.95,1.13A4.69,4.69,0,0,0,23,40.88l.07,0,.06-.05c1.19-.89,1.07-2.39,1-3.72C24,36.7,24,36.34,24,36v-.15l0-.14a9.42,9.42,0,0,0-2.39-3.26l-.63-.67A6.4,6.4,0,0,0,24,33.5c1.21,0,1.32-.6,2-8.43.68,7.83.79,8.43,2,8.43a6.4,6.4,0,0,0,3.06-1.72l-.63.67A9.42,9.42,0,0,0,28,35.71l0,.14V36c0,.34,0,.7-.06,1.08-.11,1.33-.23,2.83,1,3.72l.06.05.07,0a4.69,4.69,0,0,0,2.16.45,8.16,8.16,0,0,0,3.95-1.13,12.61,12.61,0,0,1-3.3,2.16c-1.4.69-2.84,1.41-2.84,3.14V54h1V45.5c0-2.88,6.38-1.5,9-10C35.65,39.54,32.86,40.33,31.19,40.33Z"/></g></g></g></g></svg>