<?xml version="1.0" encoding="utf-8"?>
<!-- Generator: Adobe Illustrator 23.0.3, SVG Export Plug-In . SVG Version: 6.00 Build 0)  -->
<svg version="1.1" id="Vrstva_1" xmlns="http://www.w3.org/2000/svg" xmlns:xlink="http://www.w3.org/1999/xlink" x="0px" y="0px"
	 viewBox="0 0 24 24" style="enable-background:new 0 0 24 24;" xml:space="preserve">
<style type="text/css">
	.st0{fill:#21ABF4;}
	.st1{fill:#FFFFFF;}
</style>
<circle class="st0" cx="12" cy="12" r="12"/>
<path class="st1" d="M18.1,9.6c0.2,4-2.8,8.5-8.2,8.5c-1.6,0-3.1-0.5-4.4-1.3c1.5,0.2,3-0.2,4.3-1.2c-1.3,0-2.3-0.9-2.7-2
	c0.5,0.1,0.9,0.1,1.3,0C7,13.4,6,12.1,6.1,10.8c0.4,0.2,0.8,0.3,1.3,0.4c-1.3-0.9-1.6-2.5-0.9-3.8c1.4,1.7,3.5,2.9,5.9,3
	c-0.4-1.8,0.9-3.5,2.8-3.5c0.8,0,1.6,0.3,2.1,0.9c0.7-0.1,1.3-0.4,1.8-0.7c-0.2,0.7-0.7,1.2-1.3,1.6c0.6-0.1,1.1-0.2,1.6-0.5
	C19.1,8.7,18.6,9.2,18.1,9.6z"/>
</svg>
