<svg xmlns="http://www.w3.org/2000/svg" viewBox="0 0 60.67 64.67"><defs><style>.cls-1,.cls-3{fill:#fff;}.cls-1,.cls-2{opacity:0.06;}.cls-4{fill:#e13a86;}</style></defs><title>ux</title><g id="Vrstva_2" data-name="Vrstva 2"><g id="Vrstva_1-2" data-name="Vrstva 1"><g id="ux"><path class="cls-1" d="M40.23,35l.25.07a13,13,0,0,0-3.9-16.63,10.28,10.28,0,0,1,.28,1.5,11.94,11.94,0,0,1,2.63,14.85Z"/><path class="cls-1" d="M21.14,20a10.28,10.28,0,0,1,.28-1.5,13,13,0,0,0-3.9,16.63l.25-.07.74-.21A11.94,11.94,0,0,1,21.14,20Z"/><path class="cls-1" d="M40,36l-7-2V31.56A9.71,9.71,0,0,0,35,26v-.12A11.45,11.45,0,0,0,36,22c0-4.88-1.94-8-7-8s-7,3.16-7,8a11.76,11.76,0,0,0,1,3.87V26a9.71,9.71,0,0,0,2,5.56V34l-6.95,2A13,13,0,0,0,40,36Zm-6.36-.78,4.71,1.34-.08.1a10.41,10.41,0,0,1-.85.91l-.2.21a14.6,14.6,0,0,1-1.21,1l-.51.32-.56.35-.64.32a5,5,0,0,1-.57.27c-.2.09-.41.17-.63.25l-.65.21-.64.18-.35.06h-.09ZM26,32.66A4.55,4.55,0,0,0,29,34a4.55,4.55,0,0,0,3-1.34v2.72l-3,1.5-3-1.5Zm7.53-9-1-.14a4.79,4.79,0,0,0-.7,0,5,5,0,0,0-.58,0L30,23.71a.55.55,0,0,0-.47.4h-1a.55.55,0,0,0-.47-.4l-1.31-.17a5,5,0,0,0-.58,0,4.79,4.79,0,0,0-.7,0l-1,.14a.62.62,0,0,0-.47.35V21a5.69,5.69,0,0,1,.18-1.33.33.33,0,0,1,.23-.09C25,19.58,26.24,21,29,21s4-1.43,4.59-1.43a.34.34,0,0,1,.24.11A5.61,5.61,0,0,1,34,21v3.06A.61.61,0,0,0,33.53,23.7Zm.24.69-.16,1.3a.59.59,0,0,1-.45.46l-1,.13a2.9,2.9,0,0,1-.45,0,3.73,3.73,0,0,1-.72-.06l-.34-.07a.77.77,0,0,1-.54-.51l-.34-1.33a.3.3,0,0,1,0-.21A.22.22,0,0,1,30,24l1.31-.16a4.06,4.06,0,0,1,.54,0,4.11,4.11,0,0,1,.65,0l1,.14A.34.34,0,0,1,33.77,24.39Zm-5.56-.05-.34,1.33a.77.77,0,0,1-.54.51l-.34.07a3.73,3.73,0,0,1-.72.06,2.9,2.9,0,0,1-.45,0l-1-.13a.59.59,0,0,1-.45-.46l-.16-1.3a.34.34,0,0,1,.28-.37l1-.14a4.11,4.11,0,0,1,.65,0,4.06,4.06,0,0,1,.54,0L28,24a.22.22,0,0,1,.17.1A.3.3,0,0,1,28.21,24.34ZM29,15c3.19,0,5,1.35,5.71,4.19a1.32,1.32,0,0,0-1.12-.62,2.63,2.63,0,0,0-1.3.48,6.17,6.17,0,0,1-6.58,0,2.71,2.71,0,0,0-1.3-.47,1.34,1.34,0,0,0-1.13.62C24,16.35,25.81,15,29,15ZM24,25.39l.07.5a.82.82,0,0,0,.72.66l1,.1h.5a4.46,4.46,0,0,0,.78-.08l.35-.08a.94.94,0,0,0,.79-.59l.32-1.15a.53.53,0,0,1,1,0l.32,1.15a1,1,0,0,0,.79.67l.35,0a4.65,4.65,0,0,0,.78.05,3.62,3.62,0,0,0,.5,0l1-.15c.35,0,.67-.22.72-.57l.07-.51V26c0,3-2.47,7-5,7s-5-4-5-7ZM29,38l3-1.49-1.8,4.41A11.3,11.3,0,0,1,29,41a11.3,11.3,0,0,1-1.17-.08L26,36.51Zm-2.32,2.74-.26,0-.18,0-.63-.18c-.23-.06-.45-.14-.67-.21l-.6-.24-.61-.28-.62-.32c-.2-.11-.38-.24-.57-.36s-.34-.2-.5-.31a14.6,14.6,0,0,1-1.21-1l-.2-.21a10.41,10.41,0,0,1-.85-.91l-.08-.1,4.71-1.34Z"/><rect class="cls-1" x="28.5" y="45" width="1" height="11"/><rect class="cls-1" x="28.5" y="2" width="1" height="11"/><rect class="cls-1" x="2" y="28.5" width="11" height="1"/><rect class="cls-1" x="45" y="28.5" width="11" height="1"/><path class="cls-1" d="M27.5,5.05v-1A25,25,0,0,0,4.05,27.5h1A24,24,0,0,1,27.5,5.05Z"/><path class="cls-1" d="M5.05,30.5h-1A25,25,0,0,0,27.5,54V53A24,24,0,0,1,5.05,30.5Z"/><path class="cls-1" d="M53,27.5h1A25,25,0,0,0,30.5,4.05v1A24,24,0,0,1,53,27.5Z"/><path class="cls-1" d="M48.92,27.5h1A21,21,0,0,0,30.5,8.08v1A20,20,0,0,1,48.92,27.5Z"/><path class="cls-1" d="M9.08,30.5h-1A21,21,0,0,0,27.5,49.92v-1A20,20,0,0,1,9.08,30.5Z"/><path class="cls-1" d="M27.5,9.08v-1A21,21,0,0,0,8.08,27.5h1A20,20,0,0,1,27.5,9.08Z"/><g id="creative_campaigns" data-name="creative campaigns" class="cls-2"><rect class="cls-3" x="56.54" y="44.56" width="4.12" height="0.52"/><rect class="cls-3" x="54.85" y="38.67" width="4.12" height="0.52" transform="translate(-11.84 33.67) rotate(-30)"/><rect class="cls-3" x="56.91" y="48.72" width="0.52" height="4.12" transform="translate(-15.4 74.9) rotate(-60)"/><path id="creative_campaigns-2" data-name="creative campaigns" class="cls-3" d="M46.75,36.83a8.26,8.26,0,0,0-8.25,8.25,8.6,8.6,0,0,0,3.61,6.7,5.84,5.84,0,0,1,1.55,3.61v1a1.29,1.29,0,0,0-1.29,1.29,1.31,1.31,0,0,0,.52,1A1.28,1.28,0,0,0,43.4,61v.29a3.35,3.35,0,1,0,6.7,0V61a1.28,1.28,0,0,0,.51-2.29,1.31,1.31,0,0,0,.52-1,1.29,1.29,0,0,0-1.29-1.29v-1a5.77,5.77,0,0,1,1.55-3.61A8.6,8.6,0,0,0,55,45.08,8.26,8.26,0,0,0,46.75,36.83Zm2.83,24.49a2.83,2.83,0,0,1-5.66,0v-.26h5.66Zm1-1.55a.77.77,0,0,1-.78.77H43.66a.77.77,0,1,1,0-1.54h6.18A.77.77,0,0,1,50.62,59.77Zm0-2.06a.78.78,0,0,1-.78.77H43.66a.77.77,0,1,1,0-1.54h6.18A.77.77,0,0,1,50.62,57.71Zm-7-12.11a1,1,0,1,1,1-1,.52.52,0,1,0,1,0,1,1,0,0,1,2.06,0,.52.52,0,1,0,1,0,1,1,0,1,1,1,1h-.51l-2.06,5.67h-1L44.17,45.6Zm3.61,6.18v4.64h-1V51.78Zm3.81-.41,0,0,0,.05a6.22,6.22,0,0,0-1.66,3.93v1H47.78V51.27l1.88-5.16h.18a1.55,1.55,0,1,0-1.54-1.55,1.55,1.55,0,0,0-3.06-.31,1.1,1.1,0,0,0,0,.31,1.55,1.55,0,1,0-1.54,1.55h.18l1.88,5.16v5.15H44.17v-1a6.22,6.22,0,0,0-1.66-3.93l0-.05,0,0A8.09,8.09,0,0,1,39,45.08a7.73,7.73,0,0,1,15.46,0A8.12,8.12,0,0,1,51.08,51.37Z"/></g><g class="cls-2"><path class="cls-3" d="M49.35,34.09a20.21,20.21,0,0,0,.57-3.59h-1a19.45,19.45,0,0,1-.65,3.76C48.63,34.2,49,34.13,49.35,34.09Z"/><path class="cls-3" d="M34.85,48.09a20.05,20.05,0,0,1-4.35.83v1a21,21,0,0,0,4.23-.75Q34.78,48.61,34.85,48.09Z"/></g><g class="cls-2"><path class="cls-3" d="M53.43,34.19A25,25,0,0,0,54,30.5H53a24.76,24.76,0,0,1-.52,3.57C52.77,34.1,53.1,34.14,53.43,34.19Z"/><path class="cls-3" d="M34.78,52.29A24,24,0,0,1,30.5,53v1a24.78,24.78,0,0,0,4.43-.67Q34.84,52.79,34.78,52.29Z"/></g><path class="cls-4" d="M38.23,33l.25.07a13,13,0,0,0-3.9-16.63,10.28,10.28,0,0,1,.28,1.5,11.94,11.94,0,0,1,2.63,14.85Z"/><path class="cls-4" d="M19.14,18a10.28,10.28,0,0,1,.28-1.5,13,13,0,0,0-3.9,16.63l.25-.07.74-.21A11.94,11.94,0,0,1,19.14,18Z"/><path class="cls-4" d="M38,34l-7-2V29.56A9.71,9.71,0,0,0,33,24v-.12A11.45,11.45,0,0,0,34,20c0-4.88-1.94-8-7-8s-7,3.16-7,8a11.76,11.76,0,0,0,1,3.87V24a9.71,9.71,0,0,0,2,5.56V32l-6.95,2A13,13,0,0,0,38,34Zm-6.36-.78,4.71,1.34-.08.1a10.41,10.41,0,0,1-.85.91l-.2.21a14.6,14.6,0,0,1-1.21,1l-.51.32-.56.35-.64.32a5,5,0,0,1-.57.27c-.2.09-.41.17-.63.25l-.65.21-.64.18-.35.06h-.09ZM24,30.66A4.55,4.55,0,0,0,27,32a4.55,4.55,0,0,0,3-1.34v2.72l-3,1.5-3-1.5Zm7.53-9-1-.14a4.79,4.79,0,0,0-.7,0,5,5,0,0,0-.58,0L28,21.71a.55.55,0,0,0-.47.4h-1a.55.55,0,0,0-.47-.4l-1.31-.17a5,5,0,0,0-.58,0,4.79,4.79,0,0,0-.7,0l-1,.14a.62.62,0,0,0-.47.35V19a5.69,5.69,0,0,1,.18-1.33.33.33,0,0,1,.23-.09C23,17.58,24.24,19,27,19s4-1.43,4.59-1.43a.34.34,0,0,1,.24.11A5.61,5.61,0,0,1,32,19v3.06A.61.61,0,0,0,31.53,21.7Zm.24.69-.16,1.3a.59.59,0,0,1-.45.46l-1,.13a2.9,2.9,0,0,1-.45,0,3.73,3.73,0,0,1-.72-.06l-.34-.07a.77.77,0,0,1-.54-.51l-.34-1.33a.3.3,0,0,1,0-.21A.22.22,0,0,1,28,22l1.31-.16a4.06,4.06,0,0,1,.54,0,4.11,4.11,0,0,1,.65,0l1,.14A.34.34,0,0,1,31.77,22.39Zm-5.56-.05-.34,1.33a.77.77,0,0,1-.54.51l-.34.07a3.73,3.73,0,0,1-.72.06,2.9,2.9,0,0,1-.45,0l-1-.13a.59.59,0,0,1-.45-.46l-.16-1.3a.34.34,0,0,1,.28-.37l1-.14a4.11,4.11,0,0,1,.65,0,4.06,4.06,0,0,1,.54,0L26,22a.22.22,0,0,1,.17.1A.3.3,0,0,1,26.21,22.34ZM27,13c3.19,0,5,1.35,5.71,4.19a1.32,1.32,0,0,0-1.12-.62,2.63,2.63,0,0,0-1.3.48,6.17,6.17,0,0,1-6.58,0,2.71,2.71,0,0,0-1.3-.47,1.34,1.34,0,0,0-1.13.62C22,14.35,23.81,13,27,13ZM22,23.39l.07.5a.82.82,0,0,0,.72.66l1,.1h.5a4.46,4.46,0,0,0,.78-.08l.35-.08a.94.94,0,0,0,.79-.59l.32-1.15a.53.53,0,0,1,1,0l.32,1.15a1,1,0,0,0,.79.67l.35,0a4.65,4.65,0,0,0,.78.05,3.62,3.62,0,0,0,.5,0l1-.15c.35,0,.67-.22.72-.57l.07-.51V24c0,3-2.47,7-5,7s-5-4-5-7ZM27,36l3-1.49-1.8,4.41A11.3,11.3,0,0,1,27,39a11.3,11.3,0,0,1-1.17-.08L24,34.51Zm-2.32,2.74-.26,0-.18,0-.63-.18c-.23-.06-.45-.14-.67-.21l-.6-.24-.61-.28-.62-.32c-.2-.11-.38-.24-.57-.36s-.34-.2-.5-.31a14.6,14.6,0,0,1-1.21-1l-.2-.21a10.41,10.41,0,0,1-.85-.91l-.08-.1,4.71-1.34Z"/><rect class="cls-4" x="26.5" y="43" width="1" height="11"/><rect class="cls-4" x="26.5" width="1" height="11"/><rect class="cls-4" y="26.5" width="11" height="1"/><rect class="cls-4" x="43" y="26.5" width="11" height="1"/><path class="cls-4" d="M25.5,3.05v-1A25,25,0,0,0,2.05,25.5h1A24,24,0,0,1,25.5,3.05Z"/><path class="cls-4" d="M3.05,28.5h-1A25,25,0,0,0,25.5,52V51A24,24,0,0,1,3.05,28.5Z"/><path class="cls-4" d="M51,25.5h1A25,25,0,0,0,28.5,2.05v1A24,24,0,0,1,51,25.5Z"/><path class="cls-4" d="M46.92,25.5h1A21,21,0,0,0,28.5,6.08v1A20,20,0,0,1,46.92,25.5Z"/><path class="cls-4" d="M7.08,28.5h-1A21,21,0,0,0,25.5,47.92v-1A20,20,0,0,1,7.08,28.5Z"/><path class="cls-4" d="M25.5,7.08v-1A21,21,0,0,0,6.08,25.5h1A20,20,0,0,1,25.5,7.08Z"/><g id="creative_campaigns-3" data-name="creative campaigns"><rect class="cls-4" x="54.54" y="42.56" width="4.12" height="0.52"/><rect class="cls-4" x="52.85" y="36.67" width="4.12" height="0.52" transform="translate(-11.11 32.4) rotate(-30)"/><rect class="cls-4" x="54.91" y="46.72" width="0.52" height="4.12" transform="translate(-14.66 72.17) rotate(-60)"/><path id="creative_campaigns-4" data-name="creative campaigns" class="cls-4" d="M44.75,34.83a8.26,8.26,0,0,0-8.25,8.25,8.6,8.6,0,0,0,3.61,6.7,5.84,5.84,0,0,1,1.55,3.61v1a1.29,1.29,0,0,0-1.29,1.29,1.31,1.31,0,0,0,.52,1A1.28,1.28,0,0,0,41.4,59v.29a3.35,3.35,0,1,0,6.7,0V59a1.28,1.28,0,0,0,.51-2.29,1.31,1.31,0,0,0,.52-1,1.29,1.29,0,0,0-1.29-1.29v-1a5.77,5.77,0,0,1,1.55-3.61A8.6,8.6,0,0,0,53,43.08,8.26,8.26,0,0,0,44.75,34.83Zm2.83,24.49a2.83,2.83,0,0,1-5.66,0v-.26h5.66Zm1-1.55a.77.77,0,0,1-.78.77H41.66a.77.77,0,1,1,0-1.54h6.18A.77.77,0,0,1,48.62,57.77Zm0-2.06a.78.78,0,0,1-.78.77H41.66a.77.77,0,1,1,0-1.54h6.18A.77.77,0,0,1,48.62,55.71Zm-7-12.11a1,1,0,1,1,1-1,.52.52,0,1,0,1,0,1,1,0,0,1,2.06,0,.52.52,0,1,0,1,0,1,1,0,1,1,1,1h-.51l-2.06,5.67h-1L42.17,43.6Zm3.61,6.18v4.64h-1V49.78Zm3.81-.41,0,0,0,.05a6.22,6.22,0,0,0-1.66,3.93v1H45.78V49.27l1.88-5.16h.18a1.55,1.55,0,1,0-1.54-1.55,1.55,1.55,0,0,0-3.06-.31,1.1,1.1,0,0,0,0,.31,1.55,1.55,0,1,0-1.54,1.55h.18l1.88,5.16v5.15H42.17v-1a6.22,6.22,0,0,0-1.66-3.93l0-.05,0,0A8.09,8.09,0,0,1,37,43.08a7.73,7.73,0,0,1,15.46,0A8.12,8.12,0,0,1,49.08,49.37Z"/></g><path class="cls-4" d="M47.35,32.09a20.21,20.21,0,0,0,.57-3.59h-1a19.45,19.45,0,0,1-.65,3.76C46.63,32.2,47,32.13,47.35,32.09Z"/><path class="cls-4" d="M32.85,46.09a20.05,20.05,0,0,1-4.35.83v1a21,21,0,0,0,4.23-.75Q32.78,46.61,32.85,46.09Z"/><path class="cls-4" d="M51.43,32.19A25,25,0,0,0,52,28.5H51a24.76,24.76,0,0,1-.52,3.57C50.77,32.1,51.1,32.14,51.43,32.19Z"/><path class="cls-4" d="M32.78,50.29A24,24,0,0,1,28.5,51v1a24.78,24.78,0,0,0,4.43-.67Q32.84,50.79,32.78,50.29Z"/></g></g></g></svg>