<?xml version="1.0" encoding="utf-8"?>
<!-- Generator: Adobe Illustrator 23.0.3, SVG Export Plug-In . SVG Version: 6.00 Build 0)  -->
<svg version="1.1" id="Vrstva_1" xmlns="http://www.w3.org/2000/svg" xmlns:xlink="http://www.w3.org/1999/xlink" x="0px" y="0px"
	 viewBox="0 0 24 24" style="enable-background:new 0 0 24 24;" xml:space="preserve">
<style type="text/css">
	.st0{fill:#DE3232;}
	.st1{fill:#FFFFFF;}
</style>
<g>
	<path class="st0" d="M12,0C5.4,0,0,5.4,0,12s5.4,12,12,12s12-5.4,12-12S18.6,0,12,0z"/>
	<path class="st1" d="M13.1,16.1l-2.2,2.2c-1.4,1.4-3.7,1.4-5.1,0c-0.7-0.7-1.1-1.6-1.1-2.6s0.4-1.9,1.1-2.6l3-3
		c1.4-1.4,3.7-1.4,5.1,0c0.3,0.3,0.5,0.6,0.7,0.9l-1,1c-0.1-0.4-0.3-0.7-0.6-1c-0.9-0.9-2.4-0.9-3.3,0l0,0l-3,3
		c-0.9,0.9-0.9,2.4,0,3.3c0.9,0.9,2.4,0.9,3.3,0l1.5-1.5C12,16.1,12.5,16.1,13.1,16.1z M13.1,5.7L11,7.9c0.5,0,1,0,1.6,0.2L14,6.6
		c0.9-0.9,2.4-0.9,3.3,0c0.9,0.9,0.9,2.4,0,3.3l-2.9,2.9l0,0c-0.9,0.9-2.4,0.9-3.3,0c-0.3-0.3-0.5-0.6-0.6-1l-0.1,0l-0.9,0.9
		c0.2,0.3,0.4,0.7,0.7,0.9c1.4,1.4,3.7,1.4,5.1,0l2.9-2.9c1.4-1.4,1.4-3.7,0-5.1C16.8,4.3,14.6,4.3,13.1,5.7z"/>
</g>
</svg>
