<svg xmlns="http://www.w3.org/2000/svg" viewBox="0 0 56 52.99"><defs><style>.cls-1{opacity:0.06;}.cls-2{fill:#fff;}.cls-3{fill:#e13a86;}</style></defs><title>webdevelopment</title><g id="Vrstva_2" data-name="Vrstva 2"><g id="Vrstva_1-2" data-name="Vrstva 1"><g id="webdevelopment"><g class="cls-1"><g id="responsive_design" data-name="responsive design"><polygon class="cls-2" points="25 35 25 36 54 36 54 6 4 6 4 14 5 14 5 7 53 7 53 35 25 35"/><path class="cls-2" d="M54,4H4A2,2,0,0,0,2,6v8.78a3.17,3.17,0,0,1,1-.6V6A1,1,0,0,1,4,5H54a1,1,0,0,1,1,1V38H25v1H55v2a1,1,0,0,1-1,1H25v1h9.25l1.42,5H25v1H40c.62,0,1,.32,1,.5V50H25v1H42V49.5c0-.83-.9-1.5-2-1.5H36.71l-1.42-5H54a2,2,0,0,0,2-2V6A2,2,0,0,0,54,4Z"/></g><g id="mobile_SEO" data-name="mobile SEO"><path class="cls-2" d="M12.51,48.79a.7.7,0,0,1,0,1.4.7.7,0,0,1,0-1.4Zm0-.7a1.4,1.4,0,1,0,1.4,1.4,1.4,1.4,0,0,0-1.4-1.4Z"/><path class="cls-2" d="M15.31,17.62c0,.19-.32.35-.7.35H10.45c-.39,0-.7-.16-.7-.35s.31-.35.7-.35h4.16C15,17.27,15.31,17.43,15.31,17.62Z"/><path class="cls-2" d="M23,37.71l-.69.15V50.19a2.1,2.1,0,0,1-2.1,2.1H4.8a2.1,2.1,0,0,1-2.1-2.1V18a2.1,2.1,0,0,1,2.1-2.1H20.21A2.08,2.08,0,0,1,22.05,17L22,16V15.8a2.75,2.75,0,0,0-1.74-.63H4.8A2.81,2.81,0,0,0,2,18V50.19A2.81,2.81,0,0,0,4.8,53H20.21a2.81,2.81,0,0,0,2.8-2.8V37.7Z"/><path class="cls-2" d="M21.61,42.41V38l-.35.08c-.1.34-.22.67-.35,1v2.11l.5.75A1.31,1.31,0,0,1,21.61,42.41Z"/><path class="cls-2" d="M21.22,43.9l-.31.31v2.48H4.1V20.07H18.33a1.57,1.57,0,0,1-.23-.7H3.4v28H21.61V43.18A1.46,1.46,0,0,1,21.22,43.9Z"/><path class="cls-2" d="M23,33.26h0V29.89h-.15a1.68,1.68,0,0,1-.55-.1v3.32Z"/><path class="cls-2" d="M32.73,20.65a.94.94,0,0,0,.35-1h0a1,1,0,0,0-.85-.59h-.08l-1.48.14-.13,0a5.44,5.44,0,0,0-1.24-1.38l0-.12.3-1.46a1,1,0,0,0-.49-1h0a.86.86,0,0,0-.36-.08.93.93,0,0,0-.72.32l-.95,1.15-.08.1a4.91,4.91,0,0,0-1.16-.14,5.32,5.32,0,0,0-.69,0l-.06-.11-.83-1.24a1,1,0,0,0-.76-.4.87.87,0,0,0-.28.05h0a1,1,0,0,0-.6.93l.14,1.48a.59.59,0,0,1,0,.13,5.39,5.39,0,0,0-1.37,1.24l-.13,0-1.46-.3H19.7a.94.94,0,0,0-.84.5h0a1,1,0,0,0,.24,1.08l1.15.95.1.07a5.67,5.67,0,0,0-.14,1.17c0,.23,0,.46,0,.69l-.11.06-1.24.82a1,1,0,0,0-.35,1h0a1,1,0,0,0,.85.6h.08L21,25.19h.13a5.39,5.39,0,0,0,1.24,1.37l0,.13L22,28.14a1,1,0,0,0,.49,1h0a.89.89,0,0,0,.36.07.92.92,0,0,0,.72-.31l.95-1.15.08-.1a5.5,5.5,0,0,0,1.16.14c.24,0,.46,0,.69,0a.67.67,0,0,0,.07.11l.82,1.24a.94.94,0,0,0,.76.39.86.86,0,0,0,.28,0h0a1,1,0,0,0,.6-.93L28.84,27s0-.09,0-.13a5.44,5.44,0,0,0,1.38-1.24l.12,0,1.46.3h.15a1,1,0,0,0,.84-.51h0a.94.94,0,0,0-.24-1.07l-1.15-1-.1-.08a4.91,4.91,0,0,0,.14-1.16c0-.24,0-.46,0-.69l.11-.07Zm-1.63.24,0,0,0,0-.39.23.05.45a4.52,4.52,0,0,1,0,.6,5.07,5.07,0,0,1-.12,1l-.1.43.35.28.06,0,0,0,1.14.95a.25.25,0,0,1,.06.22h0a.24.24,0,0,1-.21.11h0L30.47,25l0,0h-.06l-.43-.11-.28.35a4.83,4.83,0,0,1-1.21,1.09l-.38.24.07.45v.09l.14,1.48a.25.25,0,0,1-.13.21h0a.28.28,0,0,1-.19-.08l-.82-1.24,0,0,0-.06L26.81,27l-.44.05a4.52,4.52,0,0,1-.6,0,5.91,5.91,0,0,1-1-.12l-.45-.1-.27.36,0,0h0l0,0L23,28.44a.23.23,0,0,1-.17.06h-.07a.26.26,0,0,1-.1-.21L23,26.82v0l0-.06.11-.43L22.77,26a5,5,0,0,1-1.09-1.21l-.24-.37-.44.05h-.1l-1.49.14a.29.29,0,0,1-.2-.13.27.27,0,0,1,.08-.23l1.24-.82,0,0,.06,0,.38-.23L21,22.73a4.52,4.52,0,0,1,0-.6,5.8,5.8,0,0,1,.12-1l.1-.44-.36-.27,0,0,0,0-1.14-.95a.28.28,0,0,1-.06-.23h0a.26.26,0,0,1,.21-.1h0l1.45.29h.05l.06,0,.44.1.27-.35A5,5,0,0,1,23.19,18l.37-.24,0-.44v-.11l-.14-1.48a.25.25,0,0,1,.13-.2h0a.25.25,0,0,1,.19.09l.82,1.23,0,0,0,0,.24.39.44-.05a4.52,4.52,0,0,1,.6,0,4.44,4.44,0,0,1,1,.12l.44.1.27-.36,0,0,0,0,1-1.15a.27.27,0,0,1,.17-.06h.06a.25.25,0,0,1,.11.22l-.29,1.45v.05l0,.06-.1.43.34.28A4.83,4.83,0,0,1,30,19.55l.24.37.44-.06h.11l1.48-.14a.26.26,0,0,1,.2.13.26.26,0,0,1-.08.23Z"/><path class="cls-2" d="M11.81,29.18a6.31,6.31,0,1,0,6.3,6.3A6.31,6.31,0,0,0,11.81,29.18Zm0,11.91a5.61,5.61,0,1,1,5.6-5.61A5.61,5.61,0,0,1,11.81,41.09Z"/><path class="cls-2" d="M11.81,32.64a2.84,2.84,0,1,0,2.8,2.84A2.83,2.83,0,0,0,11.81,32.64Zm0,4.94a2.1,2.1,0,1,1,2.1-2.1A2.1,2.1,0,0,1,11.81,37.58Z"/><path class="cls-2" d="M25.84,19.72a2.46,2.46,0,1,0,2.43,2.48A2.46,2.46,0,0,0,25.84,19.72Zm0,4.2a1.75,1.75,0,1,1,1.77-1.73A1.75,1.75,0,0,1,25.8,23.92Z"/><path class="cls-2" d="M6.77,43.3,7,43.17a8.93,8.93,0,0,0,2.86,1.19l0,.21L10.13,46h.71l-.31-1.56a.51.51,0,0,1,0-.13v0l-.07-.47-.47-.1a8.36,8.36,0,0,1-2.64-1.1l-.4-.26-.38.28,0,0-.12.09L4.8,43.77v.81A.48.48,0,0,0,5,44.5Z"/><path class="cls-2" d="M23,33.94l-2.13-.42-.22,0a9,9,0,0,0-1.18-2.86,1.88,1.88,0,0,0,.12-.18l1.21-1.8a.9.9,0,0,0-.11-1.08l-1-1a.87.87,0,0,0-.61-.24.85.85,0,0,0-.47.13l-1.8,1.2-.18.13a9.26,9.26,0,0,0-2.86-1.19,1.91,1.91,0,0,1,0-.21l-.43-2.13a.88.88,0,0,0-.83-.69h-1.4a.89.89,0,0,0-.84.69l-.43,2.13c0,.06,0,.14,0,.21A9.41,9.41,0,0,0,7,27.79a1.4,1.4,0,0,1-.18-.13L5,26.46l-.16-.07v.81l1.58,1.05.12.08,0,0,.38.28.4-.25A8.36,8.36,0,0,1,10,27.29l.47-.11.07-.47v-.05a.59.59,0,0,1,0-.13L11,24.4a.23.23,0,0,1,.16-.13h1.4a.22.22,0,0,1,.15.13l.42,2.12c0,.05,0,.11,0,.19l.08.47.46.11a8.38,8.38,0,0,1,2.64,1.09l.4.26.39-.28,0,0,.13-.08L19,27h.08a.25.25,0,0,1,.12,0l1,1a.27.27,0,0,1,0,.2L19,30.06l-.11.15-.28.38.25.41A8.17,8.17,0,0,1,20,33.64l.11.46.47.08h0l.15,0,2.13.42a.2.2,0,0,1,.12.15v1.4a.2.2,0,0,1-.12.15l-2.13.43-.15,0h0l-.47.07-.11.47A8.36,8.36,0,0,1,18.9,40l-.24.42.28.38.1.14,1.21,1.81a.25.25,0,0,1,0,.19l-1,1a.19.19,0,0,1-.12,0l-.08,0-1.81-1.2-.15-.11-.38-.29-.41.26a8.17,8.17,0,0,1-2.64,1.1l-.47.12-.07.48,0,.16L12.77,46h.72l.28-1.42c0-.06,0-.13,0-.21a9,9,0,0,0,2.86-1.19l.18.13,1.8,1.2a.88.88,0,0,0,1.08-.1l1-1a.91.91,0,0,0,.11-1.08l-1.21-1.81-.12-.18a8.91,8.91,0,0,0,1.18-2.86l.22,0L23,37a.89.89,0,0,0,.68-.84v-1.4A.89.89,0,0,0,23,33.94Z"/></g></g><g id="responsive_design-2" data-name="responsive design"><polygon class="cls-3" points="23 31 23 32 52 32 52 2 2 2 2 10 3 10 3 3 51 3 51 31 23 31"/><path class="cls-3" d="M52,0H2A2,2,0,0,0,0,2v8.78a3.17,3.17,0,0,1,1-.6V2A1,1,0,0,1,2,1H52a1,1,0,0,1,1,1V34H23v1H53v2a1,1,0,0,1-1,1H23v1h9.25l1.42,5H23v1H38c.62,0,1,.32,1,.5V46H23v1H40V45.5c0-.83-.9-1.5-2-1.5H34.71l-1.42-5H52a2,2,0,0,0,2-2V2A2,2,0,0,0,52,0Z"/></g><g id="mobile_SEO-2" data-name="mobile SEO"><path class="cls-3" d="M10.51,44.79a.7.7,0,0,1,0,1.4.7.7,0,0,1,0-1.4Zm0-.7a1.4,1.4,0,1,0,1.4,1.4,1.4,1.4,0,0,0-1.4-1.4Z"/><path class="cls-3" d="M13.31,13.62c0,.19-.32.35-.7.35H8.45c-.39,0-.7-.16-.7-.35s.31-.35.7-.35h4.16C13,13.27,13.31,13.43,13.31,13.62Z"/><path class="cls-3" d="M21,33.71l-.69.15V46.19a2.1,2.1,0,0,1-2.1,2.1H2.8a2.1,2.1,0,0,1-2.1-2.1V14a2.1,2.1,0,0,1,2.1-2.1H18.21A2.08,2.08,0,0,1,20.05,13L20,12V11.8a2.75,2.75,0,0,0-1.74-.63H2.8A2.81,2.81,0,0,0,0,14V46.19A2.81,2.81,0,0,0,2.8,49H18.21a2.81,2.81,0,0,0,2.8-2.8V33.7Z"/><path class="cls-3" d="M19.61,38.41V34l-.35.08c-.1.34-.22.67-.35,1v2.11l.5.75A1.31,1.31,0,0,1,19.61,38.41Z"/><path class="cls-3" d="M19.22,39.9l-.31.31v2.48H2.1V16.07H16.33a1.57,1.57,0,0,1-.23-.7H1.4v28H19.61V39.18A1.46,1.46,0,0,1,19.22,39.9Z"/><path class="cls-3" d="M21,29.26h0V25.89h-.15a1.68,1.68,0,0,1-.55-.1v3.32Z"/><path class="cls-3" d="M30.73,16.65a.94.94,0,0,0,.35-1h0a1,1,0,0,0-.85-.59h-.08l-1.48.14-.13,0a5.44,5.44,0,0,0-1.24-1.38l0-.12.3-1.46a1,1,0,0,0-.49-1h0a.86.86,0,0,0-.36-.08.93.93,0,0,0-.72.32l-.95,1.15-.08.1a4.91,4.91,0,0,0-1.16-.14,5.32,5.32,0,0,0-.69,0l-.06-.11-.83-1.24a1,1,0,0,0-.76-.4.87.87,0,0,0-.28.05h0a1,1,0,0,0-.6.93l.14,1.48a.59.59,0,0,1,0,.13,5.39,5.39,0,0,0-1.37,1.24l-.13,0-1.46-.3H17.7a.94.94,0,0,0-.84.5h0a1,1,0,0,0,.24,1.08l1.15.95.1.07a5.67,5.67,0,0,0-.14,1.17c0,.23,0,.46,0,.69l-.11.06-1.24.82a1,1,0,0,0-.35,1h0a1,1,0,0,0,.85.6h.08L19,21.19h.13a5.39,5.39,0,0,0,1.24,1.37l0,.13L20,24.14a1,1,0,0,0,.49,1h0a.89.89,0,0,0,.36.07.92.92,0,0,0,.72-.31l.95-1.15.08-.1a5.5,5.5,0,0,0,1.16.14c.24,0,.46,0,.69,0a.67.67,0,0,0,.07.11l.82,1.24a.94.94,0,0,0,.76.39.86.86,0,0,0,.28,0h0a1,1,0,0,0,.6-.93L26.84,23s0-.09,0-.13a5.44,5.44,0,0,0,1.38-1.24l.12,0,1.46.3h.15a1,1,0,0,0,.84-.51h0a.94.94,0,0,0-.24-1.07l-1.15-1-.1-.08a4.91,4.91,0,0,0,.14-1.16c0-.24,0-.46,0-.69l.11-.07Zm-1.63.24,0,0,0,0-.39.23.05.45a4.52,4.52,0,0,1,0,.6,5.07,5.07,0,0,1-.12,1l-.1.43.35.28.06,0,0,0,1.14.95a.25.25,0,0,1,.06.22h0a.24.24,0,0,1-.21.11h0L28.47,21l0,0h-.06l-.43-.11-.28.35a4.83,4.83,0,0,1-1.21,1.09l-.38.24.07.45v.09l.14,1.48a.25.25,0,0,1-.13.21h0a.28.28,0,0,1-.19-.08l-.82-1.24,0,0,0-.06L24.81,23l-.44.05a4.52,4.52,0,0,1-.6,0,5.91,5.91,0,0,1-1-.12l-.45-.1-.27.36,0,0h0l0,0L21,24.44a.23.23,0,0,1-.17.06h-.07a.26.26,0,0,1-.1-.21L21,22.82v0l0-.06.11-.43L20.77,22a5,5,0,0,1-1.09-1.21l-.24-.37-.44.05h-.1l-1.49.14a.29.29,0,0,1-.2-.13.27.27,0,0,1,.08-.23l1.24-.82,0,0,.06,0,.38-.23L19,18.73a4.52,4.52,0,0,1,0-.6,5.8,5.8,0,0,1,.12-1l.1-.44-.36-.27,0,0,0,0-1.14-.95a.28.28,0,0,1-.06-.23h0a.26.26,0,0,1,.21-.1h0l1.45.29h.05l.06,0,.44.1.27-.35A5,5,0,0,1,21.19,14l.37-.24,0-.44v-.11l-.14-1.48a.25.25,0,0,1,.13-.2h0a.25.25,0,0,1,.19.09l.82,1.23,0,0,0,.05.24.39.44,0a4.52,4.52,0,0,1,.6,0,4.44,4.44,0,0,1,1,.12l.44.1.27-.36,0,0,0,0,1-1.15a.27.27,0,0,1,.17-.06h.06a.25.25,0,0,1,.11.22l-.29,1.45v.05l0,.06-.1.43.34.28A4.83,4.83,0,0,1,28,15.55l.24.37.44-.06h.11l1.48-.14a.26.26,0,0,1,.2.13.26.26,0,0,1-.08.23Z"/><path class="cls-3" d="M9.81,25.18a6.31,6.31,0,1,0,6.3,6.3A6.31,6.31,0,0,0,9.81,25.18Zm0,11.91a5.61,5.61,0,1,1,5.6-5.61A5.61,5.61,0,0,1,9.81,37.09Z"/><path class="cls-3" d="M9.81,28.64a2.84,2.84,0,1,0,2.8,2.84A2.83,2.83,0,0,0,9.81,28.64Zm0,4.94a2.1,2.1,0,1,1,2.1-2.1A2.1,2.1,0,0,1,9.81,33.58Z"/><path class="cls-3" d="M23.84,15.72a2.46,2.46,0,1,0,2.43,2.48A2.46,2.46,0,0,0,23.84,15.72Zm0,4.2a1.75,1.75,0,1,1,1.77-1.73A1.75,1.75,0,0,1,23.8,19.92Z"/><path class="cls-3" d="M4.77,39.3,5,39.17a8.93,8.93,0,0,0,2.86,1.19l0,.21L8.13,42h.71l-.31-1.56a.51.51,0,0,1,0-.13v0l-.07-.47L8,39.68a8.36,8.36,0,0,1-2.64-1.1l-.4-.26-.38.28,0,0-.12.09L2.8,39.77v.81A.48.48,0,0,0,3,40.5Z"/><path class="cls-3" d="M21,29.94l-2.13-.42-.22,0a9,9,0,0,0-1.18-2.86,1.88,1.88,0,0,0,.12-.18l1.21-1.8a.9.9,0,0,0-.11-1.08l-1-1a.87.87,0,0,0-.61-.24.85.85,0,0,0-.47.13l-1.8,1.2-.18.13a9.26,9.26,0,0,0-2.86-1.19,1.91,1.91,0,0,1,0-.21l-.43-2.13a.88.88,0,0,0-.83-.69H9.11a.89.89,0,0,0-.84.69l-.43,2.13,0,.21A9.41,9.41,0,0,0,5,23.79a1.4,1.4,0,0,1-.18-.13L3,22.46l-.16-.07v.81l1.58,1.05.12.08,0,0,.38.28.4-.25A8.36,8.36,0,0,1,8,23.29l.47-.11.07-.47v-.05a.59.59,0,0,1,0-.13L9,20.4a.23.23,0,0,1,.16-.13h1.4a.22.22,0,0,1,.15.13l.42,2.12c0,.05,0,.11,0,.19l.08.47.46.11a8.38,8.38,0,0,1,2.64,1.09l.4.26.39-.28,0,0,.13-.08L17,23h.08a.25.25,0,0,1,.12,0l1,1a.27.27,0,0,1,0,.2L17,26.06l-.11.15-.28.38.25.41A8.17,8.17,0,0,1,18,29.64l.11.46.47.08h0l.15,0,2.13.42a.2.2,0,0,1,.12.15v1.4a.2.2,0,0,1-.12.15l-2.13.43-.15,0h0l-.47.07-.11.47A8.36,8.36,0,0,1,16.9,36l-.24.42.28.38.1.14,1.21,1.81a.25.25,0,0,1,0,.19l-1,1a.19.19,0,0,1-.12,0l-.08,0-1.81-1.2-.15-.11-.38-.29-.41.26a8.17,8.17,0,0,1-2.64,1.1l-.47.12-.07.48,0,.16L10.77,42h.72l.28-1.42c0-.06,0-.13,0-.21a9,9,0,0,0,2.86-1.19l.18.13,1.8,1.2a.88.88,0,0,0,1.08-.1l1-1a.91.91,0,0,0,.11-1.08l-1.21-1.81-.12-.18a8.91,8.91,0,0,0,1.18-2.86l.22,0L21,33a.89.89,0,0,0,.68-.84v-1.4A.89.89,0,0,0,21,29.94Z"/></g></g></g></g></svg>